<svg id="Layer_1" xmlns="http://www.w3.org/2000/svg" viewBox="0 0 16 16"><path d="M8 4c.3 0 .5 0 .8.1 1.5.3 2.8 1.6 3.1 3.1.3 1.7-.4 2.8-.8 3.4-.8.9-1.9 1.4-3.1 1.4-.3 0-.5 0-.8-.1-1.5-.3-2.8-1.6-3.1-3.1-.3-1.6.4-2.8.8-3.3C5.7 4.5 6.8 4 8 4m0-4C3.1 0-.8 4.5.1 9.6c.6 3.1 3.1 5.7 6.3 6.3.6.1 1.1.1 1.6.1 4.9 0 8.8-4.5 7.9-9.6C15.3 3.3 12.8.7 9.6.1 9 0 8.5 0 8 0z"/><path fill="#FFF" d="M8 6.1c1.1 0 1.9.9 1.9 1.9S9.1 9.9 8 9.9 6.1 9.1 6.1 8 6.9 6.1 8 6.1m0-4C4.7 2.1 2.1 4.7 2.1 8c0 3.3 2.7 5.9 5.9 5.9s5.9-2.7 5.9-5.9c0-3.3-2.6-5.9-5.9-5.9z"/><path d="M7.8 12.5c2.5 0 4.6-2 4.6-4.6 0-2.5-2-4.6-4.6-4.6"/></svg>