<svg xmlns="http://www.w3.org/2000/svg"><symbol id="icon-contrast" viewBox="0 0 16 16"><path d="M8 4c.3 0 .5 0 .8.1 1.5.3 2.8 1.6 3.1 3.1.3 1.7-.4 2.8-.8 3.4-.8.9-1.9 1.4-3.1 1.4-.3 0-.5 0-.8-.1-1.5-.3-2.8-1.6-3.1-3.1-.3-1.6.4-2.8.8-3.3C5.7 4.5 6.8 4 8 4m0-4C3.1 0-.8 4.5.1 9.6c.6 3.1 3.1 5.7 6.3 6.3.6.1 1.1.1 1.6.1 4.9 0 8.8-4.5 7.9-9.6C15.3 3.3 12.8.7 9.6.1 9 0 8.5 0 8 0z"/><path fill="#f2f2f2" d="M8 6.1c1.1 0 1.9.9 1.9 1.9S9.1 9.9 8 9.9 6.1 9.1 6.1 8 6.9 6.1 8 6.1m0-4C4.7 2.1 2.1 4.7 2.1 8c0 3.3 2.7 5.9 5.9 5.9s5.9-2.7 5.9-5.9c0-3.3-2.6-5.9-5.9-5.9z"/><path  d="M7.8 12.5c2.5 0 4.6-2 4.6-4.6 0-2.5-2-4.6-4.6-4.6"/></symbol><symbol id="icon-crop" viewBox="0 0 48 48"><path d="M34 30h4V14c0-2.2-1.8-4-4-4H18v4h16v16zm-20 4V2h-4v8H2v4h8v20c0 2.2 1.8 4 4 4h20v8h4v-8h8v-4H14z"/></symbol><symbol id="icon-downl__android" viewBox="0 0 42.1 47"><path d="M34.1 14H7.9v19.1c0 1.9 1.5 3.5 3.3 3.6v7.4c0 1.6 1.3 2.9 2.9 2.9 1.6 0 2.9-1.3 2.9-2.9v-7.4h8.1v7.4c0 1.6 1.3 2.9 2.9 2.9 1.6 0 2.9-1.3 2.9-2.9v-7.4c1.9-.1 3.3-1.7 3.3-3.6V14.3c0-.1 0-.2-.1-.3z"/><path id="c-4-9-2-9-2-9" d="M2.9 15.7c1.6 0 2.9 1.3 2.9 2.9V31c0 1.6-1.3 2.9-2.9 2.9C1.3 33.9 0 32.6 0 31V18.6c0-1.6 1.3-2.9 2.9-2.9z"/><path id="c-4-1-7-3-8-4" d="M39.2 15.7c1.6 0 2.9 1.3 2.9 2.9V31c0 1.6-1.3 2.9-2.9 2.9-1.6 0-2.9-1.3-2.9-2.9V18.6c0-1.6 1.3-2.9 2.9-2.9z"/><path d="M8 12h26c0-2.8-1.2-5.3-3.2-7.3L33.2.5c.1-.1 0-.3-.1-.4-.1-.1-.3 0-.4.1l-2.4 4.1C28.2 2.4 24.1.9 20.9.9c-3 0-7.3 1.5-9.4 3.4L9.3.2C9.2 0 9 0 8.9 0c-.2.1-.2.3-.1.5l2.4 4.2C9.3 6.6 8.1 9.2 8 12zm17.3-5.2c0-.8.7-1.5 1.5-1.5s1.5.6 1.5 1.5c0 .8-.7 1.5-1.5 1.5s-1.5-.7-1.5-1.5zm-11.1 0c0-.8.7-1.5 1.5-1.5s1.5.6 1.5 1.5c0 .8-.7 1.5-1.5 1.5s-1.5-.7-1.5-1.5z"/></symbol><symbol id="icon-downl__apple" viewBox="0 0 46.2 56.8"><path d="M38.6 30.1c.1 8.6 7.5 11.4 7.6 11.5-.1.2-1.2 4.1-3.9 8.1-2.4 3.5-4.8 6.9-8.7 7-3.8.1-5-2.3-9.4-2.3-4.3 0-5.7 2.2-9.3 2.3-3.7.1-6.6-3.7-9-7.2-4.9-7-8.6-19.9-3.6-28.6 2.5-4.3 6.9-7 11.7-7.1 3.7-.1 7.1 2.5 9.4 2.5 2.2 0 6.4-3 10.9-2.6 1.9.1 7 .7 10.4 5.6-.2.2-6.2 3.7-6.1 10.8m-7.1-21c2-2.4 3.3-5.7 3-9.1-2.9.1-6.3 1.9-8.4 4.3-1.8 2.1-3.4 5.5-3 8.8 3.1.2 6.4-1.6 8.4-4"/></symbol><symbol id="icon-downl__windows" viewBox="0 0 43.9 42"><path id="path5058" d="M20.9 20H0V0h20.9v20z"/><path id="path5060" d="M43.9 20H23V0h20.9v20z"/><path id="path5062" d="M20.9 42H0V22h20.9v20z"/><path id="path5064" d="M43.9 42H23V22h20.9v20z"/></symbol><symbol id="icon-fill" viewBox="0 0 48 48"><path d="M33.1 17.9L15.2 0l-2.8 2.8 4.8 4.8L6.9 17.9c-1.2 1.2-1.2 3.1 0 4.2l11 11c.6.6 1.4.9 2.1.9s1.5-.3 2.1-.9l11-11c1.2-1.1 1.2-3.1 0-4.2zM10.4 20l9.6-9.6 9.6 9.6H10.4zM38 23s-4 4.3-4 7c0 2.2 1.8 4 4 4s4-1.8 4-4c0-2.7-4-7-4-7zM0 40h48v3H0z"/></symbol><symbol id="icon-htmlacademy" viewBox="0 0 154.4 195.3"><path stroke="#231F20" stroke-miterlimit="10" d="M78 .6l-.8-.1-76.7 8v140.6l76.7 45.6 76.7-45.6V8.5L78 .6zm65.9 142.8l-66.7 39.7-66.7-39.7V85.8l66.4 39.5.1 7.2-45.5-27.1-.1 7 45.7 27.5.1 7.3L31.5 120l-.1 7 45.7 27.5 46.2-27.6v-7h-.1V97.1l20.6-12.3v58.6zm-.1-66.1L125.6 88l-8.4 5L77 69.2l-.1 7 34.3 20.4-.3.2-.7.4-4.9 2.9L77 83.2l-.1 7 22.4 13.3L94 107l-.1.1-16.9-10-.1 7 11.1 6.5-11.3 6.8-66-39.3 66.1-39.8 67 39zm.1-6.9l-67-39.5-66.4 39.4V17.6l66.7-7 66.7 7v52.8z"/></symbol><symbol id="icon-logo-desk" viewBox="0 0 146.3 40.4"><path d="M71.9 18.7c0-.7.6-1.3 1.3-1.3h7.2c5.1 0 8.4 2.7 8.4 7.1v.1c0 4.9-4.1 7.4-8.9 7.4h-5.5v6.8c0 .7-.6 1.3-1.3 1.3-.7 0-1.3-.6-1.3-1.3l.1-20.1zM80 29.6c3.7 0 6.2-2 6.2-5v-.1c0-3.2-2.4-4.9-6.1-4.9h-5.7v9.9l5.6.1zm13.6-11.1c0-.7.6-1.3 1.3-1.3.7 0 1.3.6 1.3 1.3v20.3c0 .7-.6 1.3-1.3 1.3-.7 0-1.3-.6-1.3-1.3V18.5zm9.1 0c0-.7.6-1.3 1.3-1.3h.4c.6 0 .9.3 1.3.7l13.7 17.4v-17c0-.7.5-1.3 1.3-1.3.7 0 1.2.6 1.2 1.3v20.3c0 .7-.5 1.2-1.2 1.2h-.1c-.5 0-.9-.3-1.3-.8l-14-17.9v17.4c0 .7-.5 1.3-1.3 1.3-.7 0-1.2-.6-1.2-1.3l-.1-20zm25.5 0c0-.7.6-1.3 1.3-1.3.7 0 1.3.6 1.3 1.3v12.3l12.8-13.2c.3-.3.6-.5 1-.5.7 0 1.2.6 1.2 1.3 0 .4-.2.6-.4.9l-8 7.9 8.6 10.6c.2.3.4.5.4.9 0 .7-.6 1.3-1.3 1.3-.5 0-.8-.3-1-.6L135.6 29l-4.9 4.9v4.9c0 .7-.6 1.3-1.3 1.3-.7 0-1.3-.6-1.3-1.3l.1-20.3zM98.5 9.9c-2 0-3.6-1.6-3.6-3.6 0 2-1.6 3.6-3.6 3.6 2 0 3.6 1.6 3.6 3.6 0-2 1.6-3.6 3.6-3.6zm-55.4 9.4h.7c-.4-.7-1.2-1.2-2.1-1.2-.9 0-1.6-.6-1.9-1.4-.7.2-1.4.5-2.1.8h.2c1.1 0 2 .9 2 2v.3c1-.3 2.1-.5 3.2-.5z"/><path d="M60.5 28L55.3 6.6C54.9 4.3 52.7 0 46.7 0c-.8 0-1.5.7-1.5 1.5S45.9 3 46.7 3c4.9 0 5.6 3.7 5.6 4.1l4.8 19.7H55c-.4-3.6-2.5-6.6-5.3-8.5-.9.4-1.5 1.3-1.5 2.3v.3c2 1.4 3.4 3.5 3.8 6 .1.5.1 1 .1 1.5s-.1 1-.1 1.5c-.7 4.3-4.4 7.5-8.9 7.5s-8.2-3.3-8.9-7.5c-.1-.5-.1-1-.1-1.5s.1-1 .1-1.5c.1-.9.4-1.7.8-2.5-1-.1-1.9-.9-1.9-2 0-.2-.1-.4-.2-.5-.9 1.5-1.6 3.1-1.8 5h-1.8c-.7-5.9-5.8-10.5-11.9-10.5S6.2 20.9 5.5 26.8H3.4L8.2 7.1C8.3 6.7 9 3 13.8 3c.8 0 1.5-.7 1.5-1.5S14.7 0 13.8 0c-6 0-8.2 4.3-8.6 6.7L0 28.1c-.3 1.1.5 1.8 1.4 1.8h4c.1.6.2 1.2.4 1.8.1-.1.2-.2.2-.4 0-1.1.9-2 2-2 .2 0 .3 0 .5.1 0-.3-.1-.7-.1-1 0-.5.1-1 .1-1.5.7-4.3 4.4-7.5 8.9-7.5s8.2 3.3 8.9 7.5c.1.5.1 1 .1 1.5s-.1 1-.1 1.5c-.7 4.3-4.4 7.5-8.9 7.5-2 0-3.9-.7-5.4-1.8-.4.3-.8.5-1.3.5-.4 0-.7.3-.7.7 0 .3-.1.6-.2.8 2.1 1.7 4.7 2.7 7.6 2.7 6.1 0 11.2-4.6 11.9-10.5h1.8c.7 5.9 5.8 10.5 11.9 10.5s11.3-4.5 12-10.5h4c.9 0 1.7-.7 1.5-1.8z"/><path d="M50.7 16.1c-2.5 0-4.5-2-4.5-4.5 0 2.5-2 4.5-4.5 4.5 2.5 0 4.5 2 4.5 4.5 0-2.5 2-4.5 4.5-4.5zm-12.8 3.5c-1.5 0-2.7-1.2-2.7-2.7 0 1.5-1.2 2.7-2.7 2.7 1.5 0 2.7 1.2 2.7 2.7 0-1.4 1.2-2.7 2.7-2.7zM10.7 34.1c-1.5 0-2.7-1.2-2.7-2.8 0 1.5-1.2 2.8-2.7 2.8 1.5 0 2.7 1.2 2.7 2.7 0-1.5 1.2-2.7 2.7-2.7z"/></symbol><symbol id="icon-logo-mob" viewBox="0 0 74.4 22.9"><path d="M0 1.4C0 .7.6.1 1.3.1h7.2c5.1 0 8.4 2.7 8.4 7.1v.1c0 4.9-4.1 7.4-8.9 7.4H2.5v6.8c0 .7-.6 1.3-1.3 1.3-.7 0-1.3-.6-1.3-1.3V1.4zm8.1 11c3.7 0 6.2-2 6.2-5 0-3.2-2.4-4.9-6.1-4.9H2.5v9.9h5.6zM21.7 1.3c0-.7.6-1.3 1.3-1.3.7 0 1.3.6 1.3 1.3v20.3c0 .7-.6 1.3-1.3 1.3-.7 0-1.3-.6-1.3-1.3V1.3zm9.2 0c0-.7.6-1.3 1.3-1.3h.4c.6 0 .9.3 1.3.7l13.7 17.4v-17C47.5.6 48 0 48.7 0c.7 0 1.2.6 1.2 1.3v20.3c0 .7-.5 1.2-1.2 1.2h-.1c-.5 0-.9-.3-1.3-.8l-14-17.9v17.5c0 .7-.5 1.3-1.3 1.3-.7 0-1.2-.6-1.2-1.3V1.3zm25.4 0c0-.7.6-1.3 1.3-1.3.7 0 1.3.6 1.3 1.3v12.3L71.7.5c.3-.3.6-.5 1-.5.7 0 1.2.6 1.2 1.3 0 .4-.2.6-.4.9l-8 7.9 8.6 10.6c.2.3.4.5.4.9 0 .7-.6 1.3-1.3 1.3-.5 0-.8-.3-1-.6l-8.4-10.5-4.9 4.9v4.9c0 .7-.6 1.3-1.3 1.3-.7 0-1.3-.6-1.3-1.3V1.3z"/></symbol><symbol id="icon-logo-tab" viewBox="0 0 146.3 40.4"><g id="stars"><path d="M98.5 9.9c-2 0-3.6-1.6-3.6-3.6 0 2-1.6 3.6-3.6 3.6 2 0 3.6 1.6 3.6 3.6 0-2 1.6-3.6 3.6-3.6z"/><path stroke="#fff" d="M50.7 16.1c-2.5 0-4.5-2-4.5-4.5 0 2.5-2 4.5-4.5 4.5 2.5 0 4.5 2 4.5 4.5 0-2.5 2-4.5 4.5-4.5zm-12.8 3.5c-1.5 0-2.7-1.2-2.7-2.7 0 1.5-1.2 2.7-2.7 2.7 1.5 0 2.7 1.2 2.7 2.7 0-1.4 1.2-2.7 2.7-2.7zM10.7 34.1c-1.5 0-2.7-1.2-2.7-2.8 0 1.5-1.2 2.8-2.7 2.8 1.5 0 2.7 1.2 2.7 2.7 0-1.5 1.2-2.7 2.7-2.7z"/></g><path d="M71.9 18.7c0-.7.6-1.3 1.3-1.3h7.2c5.1 0 8.4 2.7 8.4 7.1v.1c0 4.9-4.1 7.4-8.9 7.4h-5.5v6.8c0 .7-.6 1.3-1.3 1.3-.7 0-1.3-.6-1.3-1.3l.1-20.1zM80 29.6c3.7 0 6.2-2 6.2-5v-.1c0-3.2-2.4-4.9-6.1-4.9h-5.7v9.9l5.6.1zm13.6-11.1c0-.7.6-1.3 1.3-1.3.7 0 1.3.6 1.3 1.3v20.3c0 .7-.6 1.3-1.3 1.3-.7 0-1.3-.6-1.3-1.3V18.5zm9.1 0c0-.7.6-1.3 1.3-1.3h.4c.6 0 .9.3 1.3.7l13.7 17.4v-17c0-.7.5-1.3 1.3-1.3.7 0 1.2.6 1.2 1.3v20.3c0 .7-.5 1.2-1.2 1.2h-.1c-.5 0-.9-.3-1.3-.8l-14-17.9v17.4c0 .7-.5 1.3-1.3 1.3-.7 0-1.2-.6-1.2-1.3l-.1-20zm25.5 0c0-.7.6-1.3 1.3-1.3.7 0 1.3.6 1.3 1.3v12.3l12.8-13.2c.3-.3.6-.5 1-.5.7 0 1.2.6 1.2 1.3 0 .4-.2.6-.4.9l-8 7.9 8.6 10.6c.2.3.4.5.4.9 0 .7-.6 1.3-1.3 1.3-.5 0-.8-.3-1-.6L135.6 29l-4.9 4.9v4.9c0 .7-.6 1.3-1.3 1.3-.7 0-1.3-.6-1.3-1.3l.1-20.3z" id="text"/><path d="M60.5 28L55.3 6.6C54.9 4.3 52.7 0 46.7 0c-.8 0-1.5.7-1.5 1.5S45.9 3 46.7 3c4.9 0 5.6 3.7 5.6 4.1l4.8 19.7H55c-.7-5.9-5.8-10.5-11.9-10.5s-11.2 4.6-11.9 10.5h-1.8c-.7-5.9-5.8-10.5-11.9-10.5s-11.3 4.6-12 10.5H3.4L8.2 7.1C8.3 6.7 9 3 13.8 3c.8 0 1.5-.7 1.5-1.5S14.7 0 13.8 0c-6 0-8.2 4.3-8.6 6.7L0 28.1c-.3 1.1.5 1.8 1.4 1.8h4c.7 5.9 5.8 10.5 11.9 10.5s11.2-4.6 11.9-10.5H31c.7 5.9 5.8 10.5 11.9 10.5S54.3 35.8 55 29.8h4c.9 0 1.7-.7 1.5-1.8zm-34.2 1.8c-.7 4.3-4.4 7.5-8.9 7.5S9.2 34 8.5 29.8c-.1-.5-.1-1-.1-1.5s.1-1 .1-1.5c.7-4.3 4.4-7.5 8.9-7.5s8.2 3.3 8.9 7.5c.1.5.1 1 .1 1.5.1.6 0 1.1-.1 1.5zm25.7 0c-.7 4.3-4.4 7.5-8.9 7.5s-8.2-3.3-8.9-7.5c-.1-.5-.1-1-.1-1.5s.1-1 .1-1.5c.7-4.3 4.4-7.5 8.9-7.5s8.2 3.3 8.9 7.5c.1.5.1 1 .1 1.5 0 .6 0 1.1-.1 1.5z" id="glasses"/></symbol><symbol id="icon-main-nav__burger" viewBox="0 0 49.9 24"><g id="miu"><g id="editor_list_view_hambuger_menu_glyph"><path id="path-1" d="M1.1 0C.5 0 0 .4 0 1v2c0 .6.5 1 1.1 1h47.7c.6 0 1.1-.4 1.1-1V1c0-.6-.5-1-1.1-1H1.1zm0 10c-.6 0-1.1.4-1.1 1v2c0 .6.5 1 1.1 1h47.7c.6 0 1.1-.4 1.1-1v-2c0-.6-.5-1-1.1-1H1.1zm0 10c-.6 0-1.1.4-1.1 1v2c0 .6.5 1 1.1 1h47.7c.6 0 1.1-.4 1.1-1v-2c0-.6-.5-1-1.1-1H1.1z"/><path id="path-1_1_" d="M1.1 0C.5 0 0 .4 0 1v2c0 .6.5 1 1.1 1h47.7c.6 0 1.1-.4 1.1-1V1c0-.6-.5-1-1.1-1H1.1zm0 10c-.6 0-1.1.4-1.1 1v2c0 .6.5 1 1.1 1h47.7c.6 0 1.1-.4 1.1-1v-2c0-.6-.5-1-1.1-1H1.1zm0 10c-.6 0-1.1.4-1.1 1v2c0 .6.5 1 1.1 1h47.7c.6 0 1.1-.4 1.1-1v-2c0-.6-.5-1-1.1-1H1.1z"/></g></g></symbol><symbol id="icon-main-nav__close-btn" viewBox="0 0 23.9 23.9"><path d="M15.1 11.9l8.6-8.6c.3-.3.3-.8 0-1.1L21.6.1c-.2 0-.4-.1-.6-.1-.2 0-.4.1-.5.2l-8.6 8.6L3.4.2c-.3-.3-.8-.3-1.1 0L.2 2.3c-.3.3-.3.8 0 1.1L8.8 12 .2 20.6c-.3.3-.3.8 0 1.1l2.1 2.1c.1.1.3.2.5.2s.4-.1.5-.2l8.6-8.6 8.6 8.6c.1.1.3.2.5.2s.4-.1.5-.2l2.1-2.1c.3-.3.3-.8 0-1.1l-8.5-8.7z"/></symbol><symbol id="icon-slider__mark" viewBox="0 0 14 14"><circle cx="7" cy="7" r="6"/><path d="M7 2c2.8 0 5 2.2 5 5s-2.2 5-5 5-5-2.2-5-5 2.2-5 5-5m0-2C3.1 0 0 3.1 0 7s3.1 7 7 7 7-3.1 7-7-3.1-7-7-7z"/></symbol></svg>