<svg xmlns="http://www.w3.org/2000/svg"><symbol id="icon-downl__android" viewBox="0 0 42.1 47"><path d="M34.1 14H7.9v19.1c0 1.9 1.5 3.5 3.3 3.6v7.4c0 1.6 1.3 2.9 2.9 2.9 1.6 0 2.9-1.3 2.9-2.9v-7.4h8.1v7.4c0 1.6 1.3 2.9 2.9 2.9 1.6 0 2.9-1.3 2.9-2.9v-7.4c1.9-.1 3.3-1.7 3.3-3.6V14.3c0-.1 0-.2-.1-.3z"/><path id="c-4-9-2-9-2-9" d="M2.9 15.7c1.6 0 2.9 1.3 2.9 2.9V31c0 1.6-1.3 2.9-2.9 2.9C1.3 33.9 0 32.6 0 31V18.6c0-1.6 1.3-2.9 2.9-2.9z"/><path id="c-4-1-7-3-8-4" d="M39.2 15.7c1.6 0 2.9 1.3 2.9 2.9V31c0 1.6-1.3 2.9-2.9 2.9-1.6 0-2.9-1.3-2.9-2.9V18.6c0-1.6 1.3-2.9 2.9-2.9z"/><path d="M8 12h26c0-2.8-1.2-5.3-3.2-7.3L33.2.5c.1-.1 0-.3-.1-.4-.1-.1-.3 0-.4.1l-2.4 4.1C28.2 2.4 24.1.9 20.9.9c-3 0-7.3 1.5-9.4 3.4L9.3.2C9.2 0 9 0 8.9 0c-.2.1-.2.3-.1.5l2.4 4.2C9.3 6.6 8.1 9.2 8 12zm17.3-5.2c0-.8.7-1.5 1.5-1.5s1.5.6 1.5 1.5c0 .8-.7 1.5-1.5 1.5s-1.5-.7-1.5-1.5zm-11.1 0c0-.8.7-1.5 1.5-1.5s1.5.6 1.5 1.5c0 .8-.7 1.5-1.5 1.5s-1.5-.7-1.5-1.5z"/></symbol><symbol id="icon-downl__apple" viewBox="0 0 46.2 56.8"><path d="M38.6 30.1c.1 8.6 7.5 11.4 7.6 11.5-.1.2-1.2 4.1-3.9 8.1-2.4 3.5-4.8 6.9-8.7 7-3.8.1-5-2.3-9.4-2.3-4.3 0-5.7 2.2-9.3 2.3-3.7.1-6.6-3.7-9-7.2-4.9-7-8.6-19.9-3.6-28.6 2.5-4.3 6.9-7 11.7-7.1 3.7-.1 7.1 2.5 9.4 2.5 2.2 0 6.4-3 10.9-2.6 1.9.1 7 .7 10.4 5.6-.2.2-6.2 3.7-6.1 10.8m-7.1-21c2-2.4 3.3-5.7 3-9.1-2.9.1-6.3 1.9-8.4 4.3-1.8 2.1-3.4 5.5-3 8.8 3.1.2 6.4-1.6 8.4-4"/></symbol><symbol id="icon-downl__windows" viewBox="0 0 43.9 42"><path id="path5058" d="M20.9 20H0V0h20.9v20z"/><path id="path5060" d="M43.9 20H23V0h20.9v20z"/><path id="path5062" d="M20.9 42H0V22h20.9v20z"/><path id="path5064" d="M43.9 42H23V22h20.9v20z"/></symbol><symbol id="icon-htmlacademy" viewBox="0 0 154.4 195.3"><path stroke="#231F20" stroke-miterlimit="10" d="M78 .6l-.8-.1-76.7 8v140.6l76.7 45.6 76.7-45.6V8.5L78 .6zm65.9 142.8l-66.7 39.7-66.7-39.7V85.8l66.4 39.5.1 7.2-45.5-27.1-.1 7 45.7 27.5.1 7.3L31.5 120l-.1 7 45.7 27.5 46.2-27.6v-7h-.1V97.1l20.6-12.3v58.6zm-.1-66.1L125.6 88l-8.4 5L77 69.2l-.1 7 34.3 20.4-.3.2-.7.4-4.9 2.9L77 83.2l-.1 7 22.4 13.3L94 107l-.1.1-16.9-10-.1 7 11.1 6.5-11.3 6.8-66-39.3 66.1-39.8 67 39zm.1-6.9l-67-39.5-66.4 39.4V17.6l66.7-7 66.7 7v52.8z"/></symbol><symbol id="icon-main-nav__burger" viewBox="0 0 49.9 24"><g id="miu"><g id="editor_list_view_hambuger_menu_glyph"><path id="path-1" d="M1.1 0C.5 0 0 .4 0 1v2c0 .6.5 1 1.1 1h47.7c.6 0 1.1-.4 1.1-1V1c0-.6-.5-1-1.1-1H1.1zm0 10c-.6 0-1.1.4-1.1 1v2c0 .6.5 1 1.1 1h47.7c.6 0 1.1-.4 1.1-1v-2c0-.6-.5-1-1.1-1H1.1zm0 10c-.6 0-1.1.4-1.1 1v2c0 .6.5 1 1.1 1h47.7c.6 0 1.1-.4 1.1-1v-2c0-.6-.5-1-1.1-1H1.1z"/><path id="path-1_1_" d="M1.1 0C.5 0 0 .4 0 1v2c0 .6.5 1 1.1 1h47.7c.6 0 1.1-.4 1.1-1V1c0-.6-.5-1-1.1-1H1.1zm0 10c-.6 0-1.1.4-1.1 1v2c0 .6.5 1 1.1 1h47.7c.6 0 1.1-.4 1.1-1v-2c0-.6-.5-1-1.1-1H1.1zm0 10c-.6 0-1.1.4-1.1 1v2c0 .6.5 1 1.1 1h47.7c.6 0 1.1-.4 1.1-1v-2c0-.6-.5-1-1.1-1H1.1z"/></g></g></symbol><symbol id="icon-main-nav__close-btn" viewBox="0 0 23.9 23.9"><path d="M15.1 11.9l8.6-8.6c.3-.3.3-.8 0-1.1L21.6.1c-.2 0-.4-.1-.6-.1-.2 0-.4.1-.5.2l-8.6 8.6L3.4.2c-.3-.3-.8-.3-1.1 0L.2 2.3c-.3.3-.3.8 0 1.1L8.8 12 .2 20.6c-.3.3-.3.8 0 1.1l2.1 2.1c.1.1.3.2.5.2s.4-.1.5-.2l8.6-8.6 8.6 8.6c.1.1.3.2.5.2s.4-.1.5-.2l2.1-2.1c.3-.3.3-.8 0-1.1l-8.5-8.7z"/></symbol><symbol id="icon-social__fb" viewBox="0 0 8.7 18.9"><path d="M6.3 3.4h2.4V0H5.8C2.7.2 1.5 2.4 1.9 6.1H0v3.5h2v9.3h3.8V9.6h2.9V6.1H5.8c0-1 0-2.4.5-2.7z"/></symbol><symbol id="icon-social__tw" viewBox="0 0 17.5 14.7"><path d="M11.3.2C13-.3 14.4.4 15 1.3c.7-.2 1.4-.5 2.1-.7 0 .8-.5 1.5-.9 1.7.7.2 1.3-.5 1.3-.5-.2 1-1 1.7-1.6 2-.2 6.6-3.3 11-10.4 10.8H5c-.4 0-4.3-.4-5-1.8 2.3.2 4-.4 4.8-1.1-1-.3-2.8-.5-3.1-2.9.4.1.6.2 1.3.1C1.8 8.1.4 7.4.5 5.2c.3.3 1.1.5 1.4.5-.7-.2-2-3.3-.9-4.8 1.9 1.8 3.8 3.5 7.4 3.7C8.5 2.3 9.5.8 11.3.2z" id="W6EeEF_1_"/></symbol><symbol id="icon-social__youtube" viewBox="0 0 14.6 14"><path d="M1.8 13.8c-1 .5-1.8 0-1.8-1.1V1.3C0 .2.8-.3 1.8.2l12.1 5.9c1 .5 1 1.3 0 1.7l-12.1 6z"/></symbol></svg>