<svg id="Layer_1" xmlns="http://www.w3.org/2000/svg" viewBox="0 0 154.4 195.3"><path stroke="#231F20" stroke-miterlimit="10" d="M78 .6l-.8-.1-76.7 8v140.6l76.7 45.6 76.7-45.6V8.5L78 .6zm65.9 142.8L77.2 183l-66.7-39.7V85.7l66.4 39.5.1 7.2-45.5-27.1-.1 7 45.7 27.5.1 7.3-45.7-27.2-.1 7 45.7 27.5 46.2-27.6v-7h-.1V97l20.6-12.3.1 58.7zm-.1-66.1L125.6 88l-8.4 5-40.1-23.9-.1 7 34.3 20.4-.3.2-.7.4-4.9 2.9-28.3-16.9-.1 7 22.4 13.3-5.3 3.5-.1.1-16.9-10-.1 7 11.1 6.5-11.3 6.8-66-39.3 66.1-39.8 66.9 39.1zm.1-7l-67-39.5-66.3 39.5V17.6l66.7-7 66.7 7v52.7h-.1z"/></svg>