<svg xmlns="http://www.w3.org/2000/svg"><symbol id="icon-fullscreen" viewBox="0 0 20 20"><path d="M0 0v6h3V3h3V0H3zm3 14H0v6h6v-3H3zM17 0h-3v3h3v3h3V0zm0 17h-3v3h6v-6h-3z"/></symbol><symbol id="icon-htmlacademy" viewBox="0 0 154.4 195.3"><path stroke="#231F20" stroke-miterlimit="10" d="M78 .6l-.8-.1-76.7 8v140.6l76.7 45.6 76.7-45.6V8.5L78 .6zm65.9 142.8L77.2 183l-66.7-39.7V85.7l66.4 39.5.1 7.2-45.5-27.1-.1 7 45.7 27.5.1 7.3-45.7-27.2-.1 7 45.7 27.5 46.2-27.6v-7h-.1V97l20.6-12.3.1 58.7zm-.1-66.1L125.6 88l-8.4 5-40.1-23.9-.1 7 34.3 20.4-.3.2-.7.4-4.9 2.9-28.3-16.9-.1 7 22.4 13.3-5.3 3.5-.1.1-16.9-10-.1 7 11.1 6.5-11.3 6.8-66-39.3 66.1-39.8 66.9 39.1zm.1-7l-67-39.5-66.3 39.5V17.6l66.7-7 66.7 7v52.7h-.1z"/></symbol><symbol id="icon-like" viewBox="0 0 22 20"><path d="M12.38 3.65l-.64 2.93L11.22 9h8.68v2.06L17 18H8V8l4.37-4.37M13.2 0L6.6 6.6A1.68 1.68 0 0 0 6 8v10a2 2 0 0 0 2 2h9a2 2 0 0 0 1.8-1.2l3-7.1a1.69 1.69 0 0 0 .1-.7V9h.1a2 2 0 0 0-2-2h-6.3l1-4.6v-.3a2.1 2.1 0 0 0-.4-1.1l-1.1-1zM4 8H0v12h4V8zm18 1z"/></symbol><symbol id="icon-replay" viewBox="0 0 16 20"><path d="M8 4V0L3 5l5 5V6c3.3 0 6 2.7 6 6s-2.7 6-6 6-6-2.7-6-6H0c0 4.4 3.6 8 8 8s8-3.6 8-8-3.6-8-8-8z"/></symbol><symbol id="icon-slider__volume" viewBox="0 0 9 9"><circle cx="4.5" cy="4.5" r="4.5"/></symbol><symbol id="icon-subscribe" viewBox="0 0 32 20"><path d="M29 0H3C1.3 0 0 1.3 0 3v14c0 1.7 1.3 3 3 3h26c1.7 0 3-1.3 3-3V3c0-1.7-1.3-3-3-3zM14.4 15.9c-.5.1-1.1.1-1.7.1-.7 0-1.4-.1-2-.3-.6-.2-1.2-.6-1.6-1s-.8-1.1-1.1-1.9c-.3-.8-.4-1.7-.4-2.8 0-1.1.2-2.1.5-2.9.3-.8.7-1.4 1.2-1.9s1.1-.8 1.7-1c.5-.1 1.2-.2 1.8-.2.7 0 1.2 0 1.7.1s.8.2 1.1.3l-.4 1.9-.9-.3H13c-.9 0-1.6.3-2.2 1-.6.7-.8 1.7-.8 3 0 .6.1 1.1.2 1.6s.3.9.6 1.3c.3.3.6.6 1 .8.4.2.9.3 1.4.3.5 0 .9 0 1.3-.1.3-.1.6-.2.9-.4l.5 1.8c-.5.3-1 .4-1.5.6zm8.7 0c-.5.1-1.1.1-1.7.1-.7 0-1.4-.1-2-.3-.6-.2-1.2-.6-1.6-1-.5-.5-.9-1.1-1.1-1.9-.3-.8-.4-1.7-.4-2.8 0-1.1.2-2.1.5-2.9.3-.8.7-1.4 1.2-1.9s1.1-.8 1.7-1c.5-.1 1.2-.2 1.8-.2.7 0 1.2 0 1.7.1s.8.2 1.1.3l-.4 1.9L23 6h-1.3c-.9 0-1.6.3-2.2 1-.6.7-.8 1.7-.8 3 0 .6.1 1.1.2 1.6s.3.9.6 1.3c.3.3.6.6 1 .8.4.2.9.3 1.4.3.5 0 .9 0 1.3-.1.3-.1.6-.2.9-.4l.5 1.8c-.5.3-1 .4-1.5.6z"/></symbol></svg>