<svg version="1.1" id="bus-station" 
	xmlns="http://www.w3.org/2000/svg" 
	xmlns:xlink="http://www.w3.org/1999/xlink" x="0px" y="0px" viewBox="0 0 512 512" enable-background="new 0 0 512 512" xml:space="preserve">
	<g id="sofa">
		<rect x="94.8" y="354.8" fill="#A4A9AD" width="21.4" height="56.7"/>
		<rect x="94.8" y="399.5" opacity="0.1" enable-background="new    " width="21.4" height="12"/>
		<rect x="312.3" y="354.8" fill="#A4A9AD" width="21.4" height="56.7"/>
		<rect x="312.3" y="399.5" opacity="0.1" enable-background="new    " width="21.4" height="12"/>
		<path fill="#A4A9AD" d="M348.6,339.4V286c0-10.2-8.4-18.6-18.6-18.6H98.5c-10.2,0-18.6,8.4-18.6,18.6v53.4H348.6z"/>
		<circle opacity="0.2" enable-background="new    " cx="214.2" cy="290" r="6"/>
		<circle opacity="0.2" enable-background="new    " cx="170.5" cy="290" r="6"/>
		<circle opacity="0.2" enable-background="new    " cx="126.8" cy="290" r="6"/>
		<circle opacity="0.2" enable-background="new    " cx="258" cy="290" r="6"/>
		<circle opacity="0.2" enable-background="new    " cx="301.7" cy="290" r="6"/>
		<rect x="79.9" y="309.5" opacity="0.1" enable-background="new    " width="268.8" height="29.9"/>
		<path fill="#D1D3D3" d="M348.6,358.5H79.9c-10.5,0-19.1-8.5-19.1-19.1s8.5-19.1,19.1-19.1h268.8c10.5,0,19.1,8.5,19.1,19.1
		C367.7,349.9,359.2,358.5,348.6,358.5z"/>
	</g>
	<g>
		<rect x="397.2" y="113.4" fill="#FFB819" width="107.6" height="123.6"/>
		<circle fill="currentColor" cx="456.4" cy="158.9" r="23.1"/>
		<path fill="#FFFFFF" d="M481.2,213.8h-49.7c-4.6,0-8.3-3.7-8.3-8.3s3.7-8.3,8.3-8.3h49.7c4.6,0,8.3,3.7,8.3,8.3
		S485.8,213.8,481.2,213.8z"/>
	</g>
	<g>
		<rect x="32.9" y="99.9" fill="#00B3E3" width="364.3" height="137.1"/>
		<rect x="20.5" y="102.2" fill="#333E48" width="24.8" height="309.4"/>
		<rect x="201.9" y="102.2" fill="#333E48" width="24.8" height="134.9"/>
		<rect x="45.3" y="113.4" opacity="0.1" enable-background="new    " width="337.9" height="31.2"/>
		<rect x="383.2" y="102.2" fill="#333E48" width="24.8" height="309.4"/>
		<path fill="#0071CE" d="M421.3,89.2c0-6.3-5.1-11.4-11.4-11.4H18.6c-6.3,0-11.4,5.1-11.4,11.4v12.8c0,6.3,5.1,11.4,11.4,11.4h391.3
		c6.3,0,11.4-5.1,11.4-11.4V89.2L421.3,89.2z"/>
	</g>
	<path fill="#A4A9AD" d="M512,429.9c0,2.4-2,4.4-4.4,4.4H4.4c-2.4,0-4.4-2-4.4-4.4v-15.8c0-2.4,2-4.4,4.4-4.4h503.2
	c2.4,0,4.4,2,4.4,4.4L512,429.9L512,429.9z"/>
</svg>
