<?xml version="1.0" encoding="utf-8"?>
<!-- Generator: Adobe Illustrator 23.0.3, SVG Export Plug-In . SVG Version: 6.00 Build 0)  -->
<svg version="1.1" id="bus" xmlns="http://www.w3.org/2000/svg" xmlns:xlink="http://www.w3.org/1999/xlink" x="0px" y="0px"
	 viewBox="0 0 141.2 141.2" enable-background="new 0 0 141.2 141.2" xml:space="preserve">
<g>
	<g>
		<g>
			<path fill="#787780" d="M27.4,121.9h-8.5v-93c0-0.8,0.7-1.5,1.5-1.5h5.4c0.8,0,1.5,0.7,1.5,1.5V121.9z"/>
			<path fill="#57555C" d="M25.8,27.4h-5.4c0,0-0.1,0-0.1,0c0.8,0.1,1.4,0.7,1.4,1.5v93h5.6v-93C27.4,28.1,26.7,27.4,25.8,27.4z"/>
			<path fill="#FEDB41" d="M30.1,120.7H16.2c-0.8,0-1.5,0.7-1.5,1.5v6.9h17v-6.9C31.6,121.4,30.9,120.7,30.1,120.7z"/>
			<g>
				<path fill="#787780" d="M35.8,127.2H10.4c-1.1,0-1.9,0.9-1.9,1.9s0.9,1.9,1.9,1.9h25.4c1.1,0,1.9-0.9,1.9-1.9
					C37.8,128.1,36.9,127.2,35.8,127.2z"/>
			</g>
		</g>
		<g>
			<circle fill="#18A7FC" cx="23.1" cy="23.1" r="21.2"/>
			<path fill="#1689FC" d="M23.1,1.9c-1,0-1.9,0.1-2.8,0.2c10.4,1.4,18.4,10.3,18.4,21s-8,19.6-18.4,21c0.9,0.1,1.9,0.2,2.8,0.2
				c11.7,0,21.2-9.5,21.2-21.2S34.8,1.9,23.1,1.9z"/>
		</g>
	</g>
	<g>
		<path fill="#787780" d="M99.5,31.6v1.3H69.8v-1.3l1.8-7.3c0.2-0.7,0.8-1.2,1.5-1.2h23c0.7,0,1.3,0.5,1.5,1.2L99.5,31.6z"/>
		<path fill="#57555C" d="M97.6,24.3c-0.2-0.7-0.8-1.2-1.5-1.2h-5.6c0.7,0,1.3,0.5,1.5,1.2l1.8,7.3v1.3h5.6v-1.3L97.6,24.3z"/>
		<path fill="#FEDB41" d="M48.6,107.1V42.2h0c0-5.9,4.7-10.6,10.6-10.6h50.9v0c5.9,0,10.6,4.7,10.6,10.6v64.9L48.6,107.1L48.6,107.1
			z"/>
		<path fill="#FCBF29" d="M120.7,42.2c0-5.9-4.7-10.6-10.6-10.6v0h-5.6v0c5.9,0,10.6,4.7,10.6,10.6l0,64.9h5.6L120.7,42.2z"/>
		<path fill="#FCBF29" d="M129.2,76.7V61.3c0-2.3-1.9-4.2-4.2-4.2h-5.5v21.2l8.2,0C128.5,78.3,129.2,77.6,129.2,76.7z"/>
		<path fill="#FCBF29" d="M40.1,76.7V61.3c0-2.3,1.9-4.2,4.2-4.2h5.5v21.2l-8.2,0C40.8,78.3,40.1,77.6,40.1,76.7z"/>
		<path fill="#787780" d="M67.7,112.2H52.8v15.4c0,0.8,0.7,1.5,1.5,1.5h11.8c0.8,0,1.5-0.7,1.5-1.5V112.2z"/>
		<path fill="#57555C" d="M62,112.2v15.4c0,0.8-0.7,1.5-1.5,1.5h5.6c0.8,0,1.5-0.7,1.5-1.5v-15.4H62z"/>
		<path fill="#787780" d="M116.4,112.2h-14.8v15.4c0,0.8,0.7,1.5,1.5,1.5h11.8c0.8,0,1.5-0.7,1.5-1.5V112.2z"/>
		<path fill="#57555C" d="M110.8,112.2v15.4c0,0.8-0.7,1.5-1.5,1.5h5.6c0.8,0,1.5-0.7,1.5-1.5v-15.4H110.8z"/>
		<path fill="#CAE8F9" d="M123.4,105.8H45.9c-0.8,0-1.5,0.7-1.5,1.5v5.4c0,0.8,0.7,1.5,1.5,1.5h77.5c0.8,0,1.5-0.7,1.5-1.5v-5.4
			C124.9,106.5,124.2,105.8,123.4,105.8z"/>
		<path fill="#787780" d="M97.9,105.8H71.3c-0.8,0-1.5-0.7-1.5-1.5v-7.5c0-0.8,0.7-1.5,1.5-1.5h26.6c0.8,0,1.5,0.7,1.5,1.5v7.5
			C99.5,105.1,98.8,105.8,97.9,105.8z"/>
		<g id="XMLID_1062_">
			<path id="XMLID_943_" fill="#36D28F" d="M87.1,80.6l1.4-5.7c0.5-2.2,2.4-3.7,4.6-3.7h4.1h4h4.1c2.2,0,4.1,1.5,4.6,3.7l1.4,5.7
				H87.1L87.1,80.6z"/>
			<path id="XMLID_2426_" fill="#FEDA9B" d="M101.1,68.5v2.7l0,0c-1.1,1.1-2.9,1.1-4,0l0,0v-2.7H101.1z"/>
			<path id="XMLID_1932_" fill="#FFC66C" d="M101.2,60.6L101.2,60.6c-1.1,1.1-2.6,1.7-4.2,1.7h-2.2v-1.1c0-2.3,1.9-4.2,4.2-4.2l0,0
				c2.3,0,4.2,1.9,4.2,4.2v1.1h-1.8c-0.5,0-1-0.2-1.4-0.6l0,0"/>
			<path id="XMLID_2397_" fill="#FEDA9B" d="M94.9,62.3v2.3c0,2.3,1.9,4.2,4.2,4.2l0,0c2.3,0,4.2-1.9,4.2-4.2v-2.3h-1.1
				c-0.8,0-1.5-0.3-2-0.9l0,0l0,0c-0.8,0.6-1.8,0.9-2.7,0.9C97.5,62.3,94.9,62.3,94.9,62.3z"/>
			<path id="XMLID_2396_" fill="#FEDA9B" d="M104.2,65h-0.8v-2.7h0.8c0.7,0,1.2,0.5,1.2,1.2v0.3C105.4,64.5,104.8,65,104.2,65z"/>
			<path id="XMLID_2395_" fill="#FEDA9B" d="M94.1,65h0.8v-2.7h-0.8c-0.7,0-1.2,0.5-1.2,1.2v0.3C92.9,64.5,93.4,65,94.1,65z"/>
			<path id="XMLID_1006_" fill="#898998" d="M106.8,81.7c0-4.3-3.5-7.7-7.7-7.7c-4.3,0-7.7,3.5-7.7,7.7"/>
			<path id="XMLID_935_" fill="#FEDA9B" d="M107.5,81.7l-2-3.3l-0.6,0.4c-0.4,0.2-0.9,0.2-1.1-0.2l-1.1-1.3c-0.2-0.3-0.3-0.7-0.1-1
				l0.8-1.3h2.2l5.7,5.7c0.4,0.4,0.1,1-0.4,1L107.5,81.7L107.5,81.7z"/>
			<path id="XMLID_1314_" fill="#36D28F" d="M106.2,79.4l1.4,2.3h3.4c0.5,0,0.8-0.6,0.4-1l-3.2-3.2L106.2,79.4z"/>
			<path id="XMLID_1313_" fill="#FEDA9B" d="M90.7,81.7l2-3.3l0.6,0.4c0.4,0.2,0.9,0.2,1.1-0.2l1.1-1.3c0.2-0.3,0.3-0.7,0.1-1
				l-0.8-1.3h-2.2l-5.7,5.7c-0.4,0.4-0.1,1,0.4,1L90.7,81.7L90.7,81.7z"/>
			<path id="XMLID_1303_" fill="#36D28F" d="M92.1,79.4l-1.4,2.3h-3.4c-0.5,0-0.8-0.6-0.4-1l3.2-3.2L92.1,79.4z"/>
			<path id="XMLID_910_" fill="#EDF2FA" d="M104.7,81.7c0-3.1-2.5-5.6-5.6-5.6s-5.6,2.5-5.6,5.6H104.7z"/>
			<path id="XMLID_2470_" fill="#898998" d="M100.7,81.7c0-0.9-0.7-1.6-1.6-1.6c-0.9,0-1.6,0.7-1.6,1.6H100.7z"/>
			<g id="XMLID_727_">
				<path id="XMLID_728_" d="M102.8,70.9c-0.1,0.1-0.1,0.2-0.1,0.4c0,0.1,0.1,0.3,0.1,0.4c0.1,0.1,0.2,0.1,0.4,0.1
					c0.1,0,0.3-0.1,0.4-0.1c0.1-0.1,0.1-0.2,0.1-0.4c0-0.1-0.1-0.3-0.1-0.4c-0.1-0.1-0.2-0.1-0.4-0.1
					C103,70.7,102.9,70.8,102.8,70.9z"/>
				<path id="XMLID_1327_" d="M111.7,80.4L111.7,80.4l-1.4-5.6c-0.6-2.4-2.7-4.1-5.1-4.1h0c-0.3,0-0.5,0.2-0.5,0.5
					c0,0.3,0.2,0.5,0.5,0.5h0c2,0,3.7,1.3,4.1,3.3l0.9,4l-4.3-4.3c-0.1-0.1-0.2-0.1-0.4-0.1h-2.2c-0.1,0-0.1,0-0.2,0
					c-1.2-0.7-2.7-1.1-4.1-1.1c-1.4,0-2.9,0.4-4.1,1.1c-0.1,0-0.1,0-0.2,0h-2.2c-0.1,0-0.3,0.1-0.4,0.1L88,79l0.9-4
					c0.5-1.9,2.2-3.3,4.2-3.3h3.9c0.6,0.5,1.4,0.8,2.2,0.8c0.9,0,1.7-0.3,2.4-1c0.1-0.1,0.1-0.2,0.1-0.4v-2.6
					c1.1-0.7,1.9-1.8,2.1-3.1h0.4c0.9,0,1.7-0.8,1.7-1.7v-0.3c0-0.9-0.8-1.7-1.7-1.7h-0.3v-0.6c0-2.6-2.1-4.7-4.7-4.7
					c-2.6,0-4.7,2.1-4.7,4.7v0.6h-0.3c-0.9,0-1.7,0.8-1.7,1.7v0.3c0,0.9,0.8,1.7,1.7,1.7h0.4c0.3,1.3,1.1,2.4,2.1,3.1v2.1h-3.5
					c-1.2,0-2.3,0.4-3.3,1.1c-0.9,0.7-1.6,1.8-1.9,2.9l-1.3,5.6l0,0c-0.3,0.3-0.4,0.8-0.2,1.2c0.2,0.4,0.6,0.7,1,0.7h3.4
					c0.2,0,0.3-0.1,0.4-0.2l1.7-2.8l0.2,0.1c0.2,0.1,0.3,0.2,0.5,0.2c-0.3,0.7-0.5,1.5-0.5,2.3c0,0.3,0.2,0.5,0.5,0.5
					c0.3,0,0.5-0.2,0.5-0.5c0-1.2,0.4-2.3,1.2-3.2l2.1,2.1c-0.2,0.3-0.3,0.7-0.3,1.1c0,0.3,0.2,0.5,0.5,0.5c0.3,0,0.5-0.2,0.5-0.5
					c0-0.6,0.5-1.1,1.1-1.1c0.6,0,1.1,0.5,1.1,1.1c0,0.3,0.2,0.5,0.5,0.5s0.5-0.2,0.5-0.5c0-0.4-0.1-0.8-0.3-1.1l2.1-2.1
					c0.7,0.9,1.2,2,1.2,3.2c0,0.3,0.2,0.5,0.5,0.5s0.5-0.2,0.5-0.5c0-0.8-0.2-1.6-0.5-2.3c0.2,0,0.3-0.1,0.5-0.2l0.2-0.1l1.7,2.8
					c0.1,0.2,0.3,0.2,0.4,0.2h3.4c0.4,0,0.8-0.3,1-0.7C112.1,81.1,112,80.7,111.7,80.4z M104.9,63.5v0.3c0,0.4-0.3,0.7-0.7,0.7h-0.3
					v-1.7h0.3C104.6,62.8,104.9,63.1,104.9,63.5z M95.4,61.2c0-2.1,1.7-3.7,3.7-3.7c2.1,0,3.7,1.7,3.7,3.7v0.6h-1.3
					c-0.3,0-0.5-0.1-0.7-0.2c0.3-0.2,0.5-0.4,0.8-0.7c0.2-0.2,0.2-0.5,0-0.7c-0.2-0.2-0.5-0.2-0.7,0c-1,1-2.4,1.6-3.8,1.6h-1.7
					L95.4,61.2L95.4,61.2z M93.4,63.8v-0.3c0-0.4,0.3-0.7,0.7-0.7h0.3v1.7h-0.3C93.7,64.5,93.4,64.2,93.4,63.8z M95.4,64.6v-1.8h1.7
					c1,0,2-0.2,2.8-0.7c0.5,0.4,1,0.7,1.7,0.7h1.3v1.8c0,2.1-1.7,3.7-3.7,3.7C97.1,68.4,95.4,66.7,95.4,64.6z M99.1,69.4
					c0.5,0,1-0.1,1.5-0.2V71c-0.9,0.7-2.1,0.7-3,0v-1.9C98.1,69.3,98.6,69.4,99.1,69.4z M102.6,75.4l-0.4,0.7
					c-0.1,0.1-0.1,0.2-0.1,0.3c-0.9-0.5-1.9-0.8-3-0.8s-2.1,0.3-3,0.8c0-0.1-0.1-0.2-0.1-0.3l-0.4-0.7c1.1-0.6,2.3-0.9,3.5-0.9
					C100.4,74.5,101.6,74.8,102.6,75.4z M90.5,81.2h-3.1c0,0-0.1,0-0.1,0c0,0,0-0.1,0-0.1l2.9-2.9l1.3,1.3L90.5,81.2z M93,78
					c-0.1-0.1-0.3-0.1-0.4-0.1c-0.1,0-0.2,0.1-0.3,0.2L92,78.6l-1.1-1.1l2-2h1.7l0.6,1c0.1,0.1,0.1,0.3,0,0.4L94,78.3
					c-0.1,0.1-0.3,0.2-0.5,0.1L93,78z M98,79.9l-2.1-2.1c0.9-0.7,2-1.2,3.2-1.2c1.2,0,2.3,0.4,3.2,1.2l-2.1,2.1
					c-0.3-0.2-0.7-0.3-1.1-0.3C98.7,79.6,98.4,79.7,98,79.9z M105.3,78l-0.6,0.4c-0.2,0.1-0.4,0.1-0.5-0.1l-1.1-1.3
					c-0.1-0.1-0.1-0.3,0-0.4l0.6-1h1.7l2,2l-1.1,1.1l-0.3-0.5c-0.1-0.1-0.2-0.2-0.3-0.2C105.5,77.9,105.4,77.9,105.3,78z M111,81.2
					C111,81.2,110.9,81.2,111,81.2l-3.2,0l-1-1.7l1.3-1.3L111,81.2C111,81.1,111,81.1,111,81.2z"/>
			</g>
		</g>
		<rect x="48.6" y="52.8" opacity="0.8" fill="#CAE8F9" width="72.1" height="27.6"/>
		<circle fill="#CAE8F9" cx="59.2" cy="95.2" r="4.2"/>
		<circle fill="#CAE8F9" cx="110.1" cy="95.2" r="4.2"/>
		<path fill="#18A7FC" d="M97.9,44.3H71.3c-0.8,0-1.5-0.7-1.5-1.5v-3.3c0-0.8,0.7-1.5,1.5-1.5h26.6c0.8,0,1.5,0.7,1.5,1.5v3.3
			C99.5,43.6,98.8,44.3,97.9,44.3z"/>
		<path fill="#AADBF6" d="M123.4,105.8h-5.6c0.8,0,1.5,0.7,1.5,1.5v5.4c0,0.8-0.7,1.5-1.5,1.5h5.6c0.8,0,1.5-0.7,1.5-1.5v-5.4
			C124.9,106.5,124.2,105.8,123.4,105.8z"/>
		<path fill="#57555C" d="M97.9,95.2h-5.6c0.8,0,1.5,0.7,1.5,1.5v7.5c0,0.8-0.7,1.5-1.5,1.5h5.6c0.8,0,1.5-0.7,1.5-1.5v-7.5
			C99.5,95.9,98.8,95.2,97.9,95.2z"/>
		<path fill="#1689FC" d="M97.9,38h-5.6c0.8,0,1.5,0.7,1.5,1.5v3.3c0,0.8-0.7,1.5-1.5,1.5h5.6c0.8,0,1.5-0.7,1.5-1.5v-3.3
			C99.5,38.7,98.8,38,97.9,38z"/>
		<polygon opacity="0.81" fill="#AADBF6" points="115,80.4 120.7,80.4 120.7,79 120.7,52.8 115,52.8 		"/>
	</g>
</g>
<g>
	<path d="M35.8,127.2h-2.3v-6.6c0-1.1-0.9-1.9-1.9-1.9h-2.3V45.4c9.8-2.7,17-11.7,17-22.3C46.3,10.4,35.9,0,23.1,0S0,10.4,0,23.1
		c0,10.6,7.2,19.6,17,22.3v73.3h-2.3c-1.1,0-1.9,0.9-1.9,1.9v6.6h-2.3c-1.1,0-1.9,0.9-1.9,1.9s0.9,1.9,1.9,1.9h25.4
		c1.1,0,1.9-0.9,1.9-1.9C37.8,128.1,36.9,127.2,35.8,127.2z M3.8,23.1c0-10.6,8.7-19.3,19.3-19.3s19.3,8.7,19.3,19.3
		s-8.7,19.3-19.3,19.3S3.8,33.8,3.8,23.1z M23.1,46.3c0.8,0,1.6,0,2.3-0.1v72.6h-4.6V46.1C21.6,46.2,22.3,46.3,23.1,46.3z
		 M16.6,122.6h13.1v4.6H16.6V122.6z"/>
	<path d="M29.3,27.4c0-1.6-0.6-3.1-1.7-4.2c1.1-1.1,1.7-2.6,1.7-4.2c0-3.4-2.8-6.2-6.2-6.2h-4.2c-1.1,0-1.9,0.9-1.9,1.9v17
		c0,1.1,0.9,1.9,1.9,1.9h4.2C26.5,33.5,29.3,30.8,29.3,27.4z M23.1,16.6c1.3,0,2.3,1,2.3,2.3c0,1.3-1,2.3-2.3,2.3h-2.3v-4.6H23.1z
		 M20.8,25h2.3c0,0,0,0,0,0c0,0,0,0,0,0c1.3,0,2.3,1,2.3,2.3c0,1.3-1,2.3-2.3,2.3h-2.3L20.8,25L20.8,25z"/>
	<path d="M124.9,55.1h-2.3v-2.3c0,0,0,0,0,0V42.2c0-6.9-5.6-12.5-12.5-12.5H101l-1.8-7c-0.2-0.9-1-1.5-1.9-1.5H71.9
		c-0.9,0-1.6,0.6-1.9,1.5l-1.8,7h-9.1c-6.9,0-12.5,5.6-12.5,12.5v12.9h-2.3c-3.4,0-6.2,2.8-6.2,6.2v17c0,1.1,0.9,1.9,1.9,1.9l6.6,0
		v23.7h-2.3c-1.1,0-1.9,0.9-1.9,1.9v8.5c0,1.1,0.9,1.9,1.9,1.9h6.6v12.9c0,1.1,0.9,1.9,1.9,1.9h14.8c1.1,0,1.9-0.9,1.9-1.9v-12.9
		h30.1v12.9c0,1.1,0.9,1.9,1.9,1.9h14.8c1.1,0,1.9-0.9,1.9-1.9v-12.9h6.6c1.1,0,1.9-0.9,1.9-1.9v-8.5c0-1.1-0.9-1.9-1.9-1.9h-2.3
		V80.4c0,0,0,0,0,0v-0.2l6.6,0c1.1,0,1.9-0.9,1.9-1.9v-17C131.1,57.9,128.3,55.1,124.9,55.1z M73.4,25h22.4l1.2,4.6H72.2L73.4,25z
		 M46.7,76.3l-4.6,0v-15c0-1.3,1-2.3,2.3-2.3h2.3V76.3z M59.2,33.5l50.9,0c4.8,0,8.7,3.9,8.7,8.7v8.7h-12.9c-1.1,0-1.9,0.9-1.9,1.9
		c0,1.1,0.9,1.9,1.9,1.9h12.9v23.7h-14.5l4.7-2.8c0.9-0.5,1.2-1.7,0.7-2.6c-0.5-0.9-1.7-1.2-2.6-0.7l-10.1,6.1H66.1l4.7-2.8
		c0.9-0.5,1.2-1.7,0.7-2.6c-0.5-0.9-1.7-1.2-2.6-0.7l-10.1,6.1h-8.2V54.7h47.7c1.1,0,1.9-0.9,1.9-1.9c0-1.1-0.9-1.9-1.9-1.9H50.5
		v-8.7C50.5,37.4,54.4,33.5,59.2,33.5z M65.7,127.2h-11v-11h11V127.2z M114.5,127.2h-11v-11h11V127.2z M123,112.4h-6.5c0,0,0,0,0,0
		h-14.8c0,0,0,0,0,0H67.7c0,0,0,0,0,0H52.8c0,0,0,0,0,0h-6.5v-4.6h23.5h29.7H123C123,107.7,123,112.4,123,112.4z M97.5,103.9H71.7
		v-6.8h25.8V103.9z M101.4,103.9v-8.7c0-1.1-0.9-1.9-1.9-1.9H69.8c-1.1,0-1.9,0.9-1.9,1.9v8.7H50.5V82.3h8.7c0,0,0,0,0,0s0,0,0,0
		h38.1c0,0,0,0,0,0c0,0,0,0,0,0h21.4v21.6H101.4z M127.2,76.3l-4.6,0l0-17.4h2.3c1.3,0,2.3,1,2.3,2.3V76.3z"/>
	<path d="M59.2,89.1c-3.4,0-6.2,2.8-6.2,6.2c0,3.4,2.8,6.2,6.2,6.2c3.4,0,6.2-2.8,6.2-6.2C65.3,91.8,62.6,89.1,59.2,89.1z
		 M59.2,97.5c-1.3,0-2.3-1-2.3-2.3c0-1.3,1-2.3,2.3-2.3c1.3,0,2.3,1,2.3,2.3C61.5,96.5,60.5,97.5,59.2,97.5z"/>
	<path d="M110.1,89.1c-3.4,0-6.2,2.8-6.2,6.2c0,3.4,2.8,6.2,6.2,6.2c3.4,0,6.2-2.8,6.2-6.2C116.2,91.8,113.5,89.1,110.1,89.1z
		 M110.1,97.5c-1.3,0-2.3-1-2.3-2.3c0-1.3,1-2.3,2.3-2.3s2.3,1,2.3,2.3C112.4,96.5,111.3,97.5,110.1,97.5z"/>
	<path d="M69.8,46.3h29.7c1.1,0,1.9-0.9,1.9-1.9V38c0-1.1-0.9-1.9-1.9-1.9H69.8c-1.1,0-1.9,0.9-1.9,1.9v6.4
		C67.9,45.4,68.7,46.3,69.8,46.3z M71.7,39.9h25.8v2.5H71.7V39.9z"/>
	<path d="M59.2,43.1h4.2c1.1,0,1.9-0.9,1.9-1.9s-0.9-1.9-1.9-1.9h-4.2c-1.1,0-1.9,0.9-1.9,1.9S58.1,43.1,59.2,43.1z"/>
	<path d="M105.8,43.1h4.2c1.1,0,1.9-0.9,1.9-1.9s-0.9-1.9-1.9-1.9h-4.2c-1.1,0-1.9,0.9-1.9,1.9S104.8,43.1,105.8,43.1z"/>
</g>
</svg>
