<svg width="150" height="100" class="car" xmlns="http://www.w3.org/2000/svg" xmlns:xlink="http://www.w3.org/1999/xlink"
	 x="0px" y="0px" viewBox="0 0 512 357.2">
	 <defs id="car">
		<g>
			<path fill="#EEC278" d="M459.5,141.8c24.4,8.1,44.3,35.8,44.3,61.5c-25.8,0-46.7-20.9-46.7-46.7
			C457.1,151.4,457.9,146.5,459.5,141.8z" />
		</g>
		<g>
			<path fill="#ED6951" d="M457.1,156.6c0-5.2,0.8-10.1,2.4-14.8c0,0-38.2-12.7-38.2-12.7c-8.5-2.8-18.6-11.8-22.5-19.9l-33.6-71.4
			c-7.6-16.3-28.6-29.6-46.6-29.6H149.8c-18,0-42.8,10.7-55.1,23.8l-75.3,80c-6.2,6.5-11.2,19.2-11.2,28.2v102.6
			c0,18,14.7,32.7,32.7,32.7h23.1c0-40.6,32.9-73.5,73.5-73.5s73.5,32.9,73.5,73.5h90c0-40.6,32.9-73.5,73.5-73.5
			s73.5,32.9,73.5,73.5c0,0,11.6,0,27.3,0s28.5-14.7,28.5-32.7v-39.5C478,203.3,457.1,182.4,457.1,156.6z M53.1,123.9l65.5-69.5
			c6.2-6.6,22.3-13.5,31.3-13.5h168.9c5.4,0,14.8,6,17,10.8l33.6,72.3L53.1,123.9L53.1,123.9z" />
			<g>
				<path fill="#700019" d="M268.3,267.3h-49.6v16.3h49.6c4.5,0,8.2-3.7,8.2-8.2C276.5,271,272.8,267.3,268.3,267.3z" />
				<path fill="#700019" d="M512,203.3c0-29-22.4-60.1-49.9-69.3c0,0-38.2-12.7-38.2-12.7c-6.4-2.1-14.8-9.6-17.7-15.7l-33.6-71.4
				C363.6,15,339.9,0,318.6,0H149.8c-20.3,0-47.1,11.6-61,26.4l-75.3,80C5.9,114.4,0,129.3,0,140.3v102.6c0,22.5,18.3,40.9,40.9,40.9
				h15.3v-16.3H40.9c-13.5,0-24.5-11-24.5-24.5V140.3c0-6.9,4.3-17.6,9-22.6l75.3-80.1c10.8-11.5,33.3-21.2,49.1-21.2h168.9
				c14.9,0,32.9,11.4,39.2,24.9l33.6,71.4c4.8,10.2,16.5,20.6,27.3,24.2l31,10.3c-0.5,3.1-0.8,6.2-0.8,9.4
				c0,27.5,20.3,50.3,46.7,54.3v31.9c0,13.5-9.1,24.5-20.3,24.5h-19.5v16.3h19.5c20.2,0,36.6-18.3,36.6-40.9L512,203.3z M465.3,156.6
				c0-1.1,0-2.1,0.1-3.2c14.3,8.3,25.9,24.4,29.3,40.6C477.8,189.9,465.3,174.7,465.3,156.6z" />
			</g>
		</g>
		<g class="car__left-wheel">
			<path fill="#FFFFFF" d="M158,253.9c11.7,11.7,11.7,30.7,0,42.4c-11.7,11.7-30.7,11.7-42.4,0c-11.7-11.7-11.7-30.7,0-42.4
			C127.3,242.3,146.3,242.3,158,253.9z" />
			<path fill="#AECE71" d="M188.8,223.1c28.7,28.7,28.7,75.3,0,104c-28.7,28.7-75.3,28.7-104,0s-28.7-75.3,0-104
			S160.1,194.4,188.8,223.1z M158,296.3c11.7-11.7,11.7-30.7,0-42.4c-11.7-11.7-30.7-11.7-42.4,0c-11.7,11.7-11.7,30.7,0,42.4
			C127.3,308,146.3,308,158,296.3z" />
			<path fill="#700019" d="M109.8,302.1c14.9,14.9,39.1,14.9,53.9,0c14.9-14.9,14.9-39.1,0-53.9c-14.9-14.9-39.1-14.9-53.9,0
			C95,263,95,287.2,109.8,302.1z M152.2,259.7c8.5,8.5,8.5,22.3,0,30.8s-22.3,8.5-30.8,0s-8.5-22.3,0-30.8
			C129.9,251.2,143.7,251.2,152.2,259.7z" />
			<path fill="#700019" d="M196.5,216c-32.4-32.4-84.9-32.4-117.3,0s-32.4,84.9,0,117.3c32.4,32.4,84.9,32.4,117.3,0
				S228.8,248.4,196.5,216z M91.4,321c-25.6-25.6-25.6-67.2,0-92.9c25.6-25.6,67.2-25.6,92.9,0c25.6,25.6,25.6,67.2,0,92.9
				S117,346.7,91.4,321z" />
			<path fill="#700019" d="M103.7,324.3l-9.1,9.1c-4.3,4.3-11.3,4.3-15.6,0h0c-4.3-4.3-4.3-11.3,0-15.6l9.1-9.1
				c4.3-4.3,11.3-4.3,15.6,0l0,0C107.9,313,107.9,320,103.7,324.3z" />
			<path fill="#700019" d="M94.4,215.6l9.1,9.1c4.3,4.3,4.3,11.3,0,15.6l0,0c-4.3,4.3-11.3,4.3-15.6,0l-9.1-9.1
				c-4.3-4.3-4.3-11.3,0-15.6l0,0C83.1,211.3,90.1,211.3,94.4,215.6z" />
			<path fill="#700019" d="M187,308.3l9.1,9.1c4.3,4.3,4.3,11.3,0,15.6h0c-4.3,4.3-11.3,4.3-15.6,0l-9.1-9.1
				c-4.3-4.3-4.3-11.3,0-15.6l0,0C175.7,304,182.7,304,187,308.3z" />
			<path fill="#700019" d="M195.6,232.4l-9.1,9.1c-4.3,4.3-11.3,4.3-15.6,0l0,0c-4.3-4.3-4.3-11.3,0-15.6l9.1-9.1
				c4.3-4.3,11.3-4.3,15.6,0l0,0C199.9,221.1,199.9,228.1,195.6,232.4z" />
		</g>
		<g class="car__right-wheel">
			<path fill="#FFFFFF" d="M395,253.9c11.7,11.7,11.7,30.7,0,42.4c-11.7,11.7-30.7,11.7-42.4,0c-11.7-11.7-11.7-30.7,0-42.4
			C364.3,242.3,383.3,242.3,395,253.9z" />
			<path fill="#AECE71" d="M425.8,223.1c28.7,28.7,28.7,75.3,0,104c-28.7,28.7-75.3,28.7-104,0s-28.7-75.3,0-104
			S397.1,194.4,425.8,223.1z M395,296.3c11.7-11.7,11.7-30.7,0-42.4c-11.7-11.7-30.7-11.7-42.4,0c-11.7,11.7-11.7,30.7,0,42.4
			C364.3,308,383.3,308,395,296.3z" />
			<path fill="#700019" d="M346.8,302.1c14.9,14.9,39.1,14.9,53.9,0s14.9-39.1,0-53.9s-39.1-14.9-53.9,0S332,287.2,346.8,302.1z
				M389.2,259.7c8.5,8.5,8.5,22.3,0,30.8s-22.3,8.5-30.8,0s-8.5-22.3,0-30.8C366.9,251.2,380.7,251.2,389.2,259.7z" />
			<path fill="#700019" d="M433.5,216c-32.4-32.4-84.9-32.4-117.3,0s-32.4,84.9,0,117.3s84.9,32.4,117.3,0S465.8,248.4,433.5,216z
					M328.4,321c-25.6-25.6-25.6-67.2,0-92.9c25.6-25.6,67.2-25.6,92.9,0c25.6,25.6,25.6,67.2,0,92.9S354,346.7,328.4,321z" />
			<path fill="#700019" d="M340.7,324.3l-9.1,9.1c-4.3,4.3-11.3,4.3-15.6,0l0,0c-4.3-4.3-4.3-11.3,0-15.6l9.1-9.1
				c4.3-4.3,11.3-4.3,15.6,0l0,0C344.9,313,344.9,320,340.7,324.3z" />
			<path fill="#700019" d="M331.4,215.6l9.1,9.1c4.3,4.3,4.3,11.3,0,15.6v0c-4.3,4.3-11.3,4.3-15.6,0l-9.1-9.1
				c-4.3-4.3-4.3-11.3,0-15.6l0,0C320.1,211.3,327.1,211.3,331.4,215.6z" />
			<path fill="#700019" d="M424,308.3l9.1,9.1c4.3,4.3,4.3,11.3,0,15.6h0c-4.3,4.3-11.3,4.3-15.6,0l-9.1-9.1
				c-4.3-4.3-4.3-11.3,0-15.6v0C412.7,304,419.7,304,424,308.3z" />
			<path fill="#700019" d="M432.6,232.4l-9.1,9.1c-4.3,4.3-11.3,4.3-15.6,0l0,0c-4.3-4.3-4.3-11.3,0-15.6l9.1-9.1
				c4.3-4.3,11.3-4.3,15.6,0v0C436.9,221.1,436.9,228.1,432.6,232.4z" />
		</g>
		<g class="car__windows">
			<path fill="#FFFFFF" d="M208.4,40.9v83.1H53.1l65.5-69.5c6.2-6.6,22.3-13.5,31.3-13.5H208.4z" />
			<g>
				<path fill="#C5E2E2" d="M335.7,51.7l33.6,72.3H208.4V40.9h110.3C324,40.9,333.4,46.8,335.7,51.7z" />
				<path fill="#700019" d="M149.8,49h25.9c4.5,0,8.2-3.7,8.2-8.2s-3.7-8.2-8.2-8.2h-25.9c-11.4,0-29.4,7.8-37.2,16.1l-65.5,69.6
				c-2.2,2.4-2.8,5.8-1.5,8.8c1.3,3,4.2,4.9,7.5,4.9h316.2c2.8,0,5.4-1.4,6.9-3.8c1.5-2.4,1.7-5.3,0.5-7.8l-33.6-72.3
				c-3.6-7.7-15.9-15.5-24.4-15.5H208.4c-4.5,0-8.2,3.7-8.2,8.2l0,74.9H72L124.5,60C129.1,55.1,143,49,149.8,49z M216.5,49h102.1
				c2.4,0.1,8.5,4,9.6,6.1l28.2,60.6H216.5L216.5,49z" />
			</g>
		</g>
	 </defs>
	</svg>