<svg version="1.1" id="station" xmlns="http://www.w3.org/2000/svg" xmlns:xlink="http://www.w3.org/1999/xlink" x="0px" y="0px"
	 viewBox="0 0 424 424" enable-background="new 0 0 424 424" xml:space="preserve">
<g>
	<path fill="#030303" d="M294.6,417.4c-81.9,0-163.7,0-245.6,0c-2.8-2.3-5.6-4.7-5.3-8.7c0.4-6.2,1.1-12.4,1.7-18.5
		c2.4-4.8,6.1-8.4,10.9-10.8c2.3-0.5,4.6-1.1,7-1.6c0-2.3,0-4.5,0-6.7c0-4.8,0-9.6,0-14.4c0-18.9,0-37.9,0-56.8c0-5.1,0-10.1,0-15.2
		c0-17.6,0-35.2,0-52.8c0-1.3,0-2.7,0-4c0-5.1,0-10.1,0-15.2c0-18.9,0-37.9,0-56.8c0-5.1,0-10.1,0-15.2c0-0.8,0-1.6,0-2.4
		c0-18.1,0-36.3,0-54.4c0-5.1,0-10.1,0-15.2c0-3.5,0-7,0-10.5c-9.1-1.5-11.8-4.7-11.8-13.6c0-5.8-0.1-11.7-0.2-17.5
		c0-1.1,0-2.1,0-3.2c0.9-4.2,1.9-8.4,2.8-12.7c1.8-1.1,3.5-2.2,5.3-3.3c75.2,0,150.4,0,225.6,0c5.8,2.4,8.4,6.5,8.1,12.9
		c-0.3,7.8,0.2,15.7-0.2,23.5c-0.2,3.5-1.7,7-2.5,10.5l0,0c-2.9,1.1-5.7,2.2-8.6,3.4c-0.2,0.3-0.4,0.6-0.6,0.9c0,1.6,0,3.2,0,4.8
		c0,5.1,0,10.1,0,15.2c0,19.1,0,38.2,0,57.2c0,5.2,0,10.4,0,15.6c0,18.7,0,37.3,0,56c0,5.1,0,10.1,0,15.2c0,14.2,0,28.5,0,43.4
		c5.5,0,10.6,0,15.8,0c2.4,2.1,4.8,4.2,7.2,6.2c0.3,6.2,0.6,12.4,1.1,18.5c0.1,1.3,0.8,3.2,1.8,3.7c7.5,3.8,12,9.7,14,17.7
		c0.2,4.8,0.4,9.6,0.7,14.4c0,11-0.2,22.1-0.1,33.1c0,6.7,4.6,11.5,10.6,11.5c5.9,0,10.7-4.6,10.7-11.1c0.1-17.6,0-35.1-0.1-52.7
		c0-5.1,0-10.3,0-15.4c0.1-6.3,0.2-12.5,0.2-18.8c0-12.4-0.2-24.7-0.2-37.1c0-5.1,0-10.2-0.1-15.3c0.1-3.2,0.3-6.3,0.3-9.5
		c-0.1-15.7-0.2-31.5-0.2-47.2c0.1-4.6,0.3-9.3,0.2-13.9c0-0.7-1.3-1.5-2-2.2c-14.3-6.2-17.6-18.1-16-32.1c-1.8-0.6-3.2-1.1-4.5-1.6
		c-3.7-2.8-4.4-6.8-4.4-11.1c0.1-3.1,0.1-6.1,0.2-9.2c0.2-6.3,3.1-9.6,9.2-10.4c0.9-0.1,1.8-0.2,3-0.4c0-6.5-0.1-12.9,0-19.3
		c0.1-4.2,2.6-6.5,6.1-6.5s5.7,2.4,5.9,6.6c0.1,4,0.1,8,0.2,12c0,2.4,0,4.7,0,7.2c3.7,0,7.2,0,10.8,0c2.1,0,4.3,0,6.5,0
		c0-2.4,0-4.5,0-6.6c0.2-5.3,0.5-10.7,0.7-16c1.1-1,2.2-2.1,3.3-3.1c4-0.5,7,0.6,8.2,4.8c0,7,0,13.9,0,20.8
		c10.5,1.6,12.3,3.7,12.4,14.1c0,3,0.1,6.1,0.2,9.1c-1,4.9-3.4,8.4-8.4,9.2c-0.4,5.5-0.7,10.6-1.1,15.6c-2.9,8.1-8,13.9-16.2,16.9
		c-0.8,0.3-1.7,1.7-1.7,2.6c0,18.3,0.1,36.6,0.1,55c0,5.1,0,10.1,0,15.2c0,18.9,0,37.9,0,56.8c0,5.1,0,10.1,0,15.2
		c0,18.9,0,37.9,0,56.8c-0.2,5.3-0.5,10.7-0.7,16c-2.8,8.5-8.3,14.2-16.8,16.9c-4.8-0.3-9.6-0.7-14.4-1
		c-10.2-5.3-14.5-13.8-13.9-25.1c0.2-4.9-0.1-9.8-0.1-14.7c0-5.4,0-10.7-0.1-16.1c0.9-10.1,0-14-4.2-17.4c0,3.5,0.1,6.8,0,10.1
		c-0.2,7.4-4.9,12.1-12.3,12.3c-3.8,0.1-7.7,0-11.7,0c0,7.1,0,13.8,0,20.5c0,5.4,0,10.7,0,16.1c0,3.3,0,6.6,0,9.8
		c12.6,2.7,19.1,9.4,19.7,20.2c0.1,2.3,0.1,4.5,0.2,6.8c-0.6,3.2-1.2,6.4-1.8,9.5C297.7,415.2,296.2,416.3,294.6,417.4z M253.8,19.9
		c-2.9,0-5.9,0-8.8,0c-16,0-32,0-48,0c-5.1,0-10.1,0-15.2,0c-18.9,0-37.9,0-56.8,0c-5.1,0-10.1,0-15.2,0c-15.4,0-30.8,0-46.1,0
		c0,8.8,0,17.2,0,25.6c7.7,0,15.3,0,22.8,0c5.1,0,10.2,0,15.3,0c10.5,0.1,21,0.2,31.6,0.2c8.4,0,16.8-0.2,25.2-0.3
		c5.1,0,10.2,0,15.3,0c10.5,0.1,21,0.2,31.6,0.2c8.4,0,16.8-0.2,25.2-0.3c4.5,0,9.1,0.1,13.6,0.1c12.2,0,24.3,0,36.6,0
		c0-8.6,0-17.2,0-25.7c-4.1,0-7.9,0-11.8,0C263.9,19.9,258.9,19.9,253.8,19.9z M258.1,87.2c0,2.9,0,5.7,0,8.7c3.8,0,7.2,0,10.8,0
		c0-5.8,0-11.3,0-16.9c0-7,0-13.9,0-20.8c-3.9,0-7.3,0-10.8,0C258.1,68.1,258.1,77.6,258.1,87.2z M328.8,104c13.7,0,27.4,0,41.3,0
		c0-2.6,0-5,0-7.6c-13.9,0-27.6,0-41.3,0c-0.2,0.3-0.3,0.7-0.5,1c0,1.8,0,3.7,0,5.5C328.5,103.3,328.6,103.7,328.8,104z M281.8,319
		c3.7,0,7.3,0,11.1,0c0-11.1,0-21.9,0-32.8c0-2.6,0-5.2,0-8c-4,0-7.8,0-11.8,0c0,6,0,11.8,0,17.6c0,7.5,0,14.9,0,22.4
		C281.4,318.5,281.6,318.7,281.8,319z M75.7,68.7c0,9,0,18,0,27.2c3.7,0,7.1,0,10.8,0c0-11.9,0-23.6,0-35.3c-0.5-1-0.9-2.7-1.5-2.8
		c-3.1-0.3-6.2-0.1-9.3-0.1C75.7,61.8,75.7,65.2,75.7,68.7z M75.7,125.4c0,5.1,0,10.2,0,15.2c0,18.9,0,37.8,0,56.8
		c0,5.1,0,10.2,0,15.2c0,18.9,0,37.8,0,56.8c0,5.1,0,10.2,0,15.2c0,18.9,0,37.8,0,56.8c0,5.1,0,10.2,0,15.3c0,7,0,13.9,0,20.9
		c13.2,0,26,0,38.8,0c5.1,0,10.2,0,15.3,0c10.5,0.1,21,0.2,31.6,0.2c8.4,0,16.8-0.2,25.2-0.3c5.1,0,10.2,0,15.2,0
		c10.4,0,20.8,0,31.2,0c11.9,0,23.9,0,35.9,0c0-22.6,0-45,0-67.3c0-5.1,0-10.1,0-15.2c0-18.9,0-37.9,0-56.8c0-5.1,0-10.1,0-15.2
		c0-18.9,0-37.9,0-56.8c0-5.1,0-10.2,0-15.2c0-14.2,0-28.4,0-42.5c-12.3,0-24.1,0-35.9,0c-4.4-0.1-8.7-0.3-13.1-0.3
		c-13.2,0-26.4,0.2-39.7,0.3c-5.1,0-10.2,0-15.3,0c-10.5-0.1-21-0.2-31.6-0.2c-8.4,0-16.8,0.2-25.2,0.3c-5.1,0-10.2,0-15.2,0
		c-5.8,0-11.5,0-17.3,0C75.7,114.3,75.7,119.8,75.7,125.4z M253,405.3c11.9,0,23.8,0,35.9,0c0-2.5,0.2-4.7,0-6.8
		c-0.5-5.3-3.5-8.4-8.8-8.5c-9.8-0.1-19.7,0.1-29.5,0.1c-2.4,0-4.8,0-7.2-0.1c-18.9,0-37.9,0-56.8,0c-5.1,0-10.1,0-15.2,0
		c-18.9,0-37.9,0-56.8,0c-5.1,0-10.1,0-15.2,0c-11.7,0-23.3-0.1-35-0.1c-4,0-7.1,2-8,5.9c-0.7,3-0.5,6.1-0.7,9.4
		c10.8,0,20.8,0,30.9,0c5.1,0,10.1,0,15.2,0c18.9,0,37.9,0,56.8,0c5.1,0,10.1,0,15.2,0c18.9,0,37.9,0,56.8,0
		C238.1,405.3,245.5,405.3,253,405.3z M108.2,95.9c5.1,0,10.1,0,15.2,0c6.8,0.1,13.5,0.2,20.3,0.2c12.2,0,24.4-0.2,36.6-0.3
		c5.1,0,10.1,0,15.2,0c16.7,0,33.4,0,50.2,0c0-12.7,0-25.3,0-37.8c-5.2,0-10.1,0-15,0c-5.1,0-10.1,0-15.2,0
		c-6.8-0.1-13.5-0.2-20.3-0.2c-12.2,0-24.4,0.2-36.6,0.2c-5.1,0-10.1,0-15.2,0c-14.8,0-29.7,0-44.5,0c0,12.8,0,25.3,0,37.8
		C102.1,95.9,105.2,95.9,108.2,95.9z M336.9,116.3c0,3.5-0.1,6.5,0,9.5c0.3,6.6,5.2,11.5,11.7,11.8c6.4,0.3,12.1-4.2,12.9-10.6
		c0.4-3.5,0.1-7.1,0.1-10.8C353.3,116.3,345.4,116.3,336.9,116.3z"/>
	<path fill="#D7D6D9" d="M75.7,341.4c0-18.9,0-37.8,0-56.8c1.3-0.8,2.9-1.3,3.9-2.3c22.6-22.5,45.2-45.1,67.7-67.7
		c1-1,1.6-2.3,2.4-3.5c16.9-0.1,33.7-0.2,50.6-0.1c4.2,0,7.2-1.3,8.5-5.5c1.1,0,2.2,0,3.3,0c-1.2,1.6-2.3,3.5-3.8,4.9
		c-4,3.8-8.1,7.4-12.1,11.1c-0.2-3.1-1.4-5.5-4.5-6.3c-3.3-0.9-5.6,0.9-7.3,3.5c-0.7,1.1-1.5,2.2-2.3,3.3
		c-12.6,18-25.2,36-37.8,53.9c-1.4,0.9-3,1.7-4.1,2.8c-20.1,20-40.1,40.1-60.3,60.1C78.8,339.9,77.1,340.5,75.7,341.4z"/>
	<path fill="#D7D6D9" d="M114.6,377.5c-12.8,0-25.7,0-38.8,0c0-7,0-13.9,0-20.9c1.4-0.9,3.1-1.5,4.2-2.6
		c15-14.9,29.9-29.8,44.8-44.8c1.1-1.1,2-2.5,3-3.7c1.8,2.5,4.3,3.2,7.3,3.2c10.7-0.1,21.5,0,32.8,0c-3.1,8.6-6,16.7-8.9,24.8
		c-1.2,0.7-2.6,1.2-3.6,2.1c-12.9,12.8-25.8,25.7-38.7,38.7C115.7,375.2,115.2,376.4,114.6,377.5z"/>
	<path fill="#D7D6D9" d="M186.6,377.5c-8.4,0.1-16.8,0.3-25.2,0.3c-10.5,0-21-0.2-31.6-0.2c0.4-0.9,0.7-2,1.3-2.7
		c5.5-5.6,11.1-11.2,16.8-16.8c0.8-0.8,2-1.1,3-1.6c-0.7,2-1.4,4-1.9,6.1c-0.3,1.3-0.8,2.9-0.3,3.8c1.1,1.8,2.6,3.7,4.4,4.4
		c3,1.2,5.3-0.8,7-3.2c6.1-8.7,12.2-17.5,18.3-26.2c12-17.1,24-34.2,36-51.3c2.3-1.8,4.7-3.6,7-5.5c3.7-3.2,7.2-6.4,10.9-9.6
		c0.3,17.9,0.5,35.7,0.8,53.6c0,1.1-0.1,2.1-0.1,3.2c-1.4,0.8-3.1,1.4-4.3,2.5c-13.3,13.2-26.6,26.4-39.8,39.7
		C187.9,375,187.3,376.3,186.6,377.5z"/>
	<path fill="#BEBEC1" d="M233,328.6c-0.3-17.9-0.5-35.7-0.8-53.6c0.3-0.8,0.5-1.6,0.8-2.4c1.1-1,2.2-1.9,3.3-2.9
		c9.6-9.6,19.2-19.2,28.8-28.8c1.1-1.1,2.5-1.8,3.8-2.7c0,18.9,0,37.9,0,56.8c-1.3,0.9-2.7,1.7-3.8,2.7
		c-9.5,9.4-18.8,18.8-28.3,28.2C235.7,327,234.3,327.7,233,328.6z"/>
	<path fill="#D7D6D9" d="M75.7,269.4c0-18.9,0-37.8,0-56.8c1.5-0.9,3.1-1.8,4.5-2.9c2.9-2.2,5.6-4.6,8.4-6.9
		c2.2,5.7,6.5,8.1,12.5,8.1c11.2,0,22.4,0.1,33.5,0.1c-0.7,1.1-1.2,2.3-2.1,3.2c-17.7,17.7-35.4,35.4-53.1,53.1
		C78.4,268.3,76.9,268.7,75.7,269.4z"/>
	<path fill="#BEBEC1" d="M268.9,310.2c0,22.4,0,44.8,0,67.3c-12,0-24,0-35.9,0c-0.2-10.2-0.5-20.4-0.7-30.6c0.3-0.8,0.5-1.6,0.8-2.4
		c1.1-1,2.2-1.9,3.3-2.9c9.6-9.6,19.2-19.2,28.8-28.8C266.2,311.9,267.6,311.1,268.9,310.2z"/>
	<path fill="#BEBEC1" d="M268.9,166.2c0,18.9,0,37.9,0,56.8c-1.3,0.9-2.7,1.7-3.8,2.7c-9.5,9.4-18.8,18.8-28.3,28.2
		c-1.1,1.1-2.5,1.8-3.8,2.7c0-15.2,0-30.4,0-45.5c3.6-0.1,7.2-0.1,10.8-0.2c8.2-0.2,12.5-4.5,12.6-12.7c0.1-7.2,0.1-14.4,0.2-21.6
		c1.7-1.4,3.4-2.9,5.1-4.3C264.1,170.3,266.5,168.2,268.9,166.2z"/>
	<path fill="#D7D6D9" d="M158.6,45.5c-8.4,0.1-16.8,0.3-25.2,0.3c-10.5,0-21-0.2-31.6-0.2c0.7-1.2,1.2-2.6,2.2-3.6
		c6.1-6.3,12.4-12.4,18.5-18.6c1-1,1.6-2.3,2.5-3.5c18.9,0,37.9,0,56.8,0c-0.8,1.2-1.5,2.5-2.4,3.5c-6.1,6.2-12.4,12.4-18.5,18.6
		C159.9,43,159.3,44.3,158.6,45.5z"/>
	<path fill="#D7D6D9" d="M197,19.9c16,0,32,0,48,0c0,2.9,0,5.8,0,8.7c0,1.1-0.1,2.1-0.1,3.2c-6.3,3-10.5,8.2-14.3,13.8
		c-8.4,0.1-16.8,0.3-25.2,0.3c-10.5,0-21-0.2-31.6-0.2c0.7-1.2,1.2-2.6,2.2-3.6c6.1-6.3,12.4-12.4,18.5-18.6
		C195.5,22.4,196.2,21.1,197,19.9z"/>
	<path fill="#D7D6D9" d="M108.2,108.5c8.4-0.1,16.8-0.3,25.2-0.3c10.5,0,21,0.2,31.6,0.2c-0.8,1.3-1.5,2.7-2.5,3.8
		c-3.6,4.1-7.4,8.1-11.1,12.2c-2.7,0.1-5.3,0.2-8,0.1c-4-0.1-6.6,1.6-7.4,5.7c-5.2,0-10.5,0-15.7,0c-1.6-1.8-3-5-4.7-5.1
		c-7.5-0.4-15.3-2-22.6,1.4c0.7-1.2,1.2-2.6,2.2-3.6c3.5-3.7,7.3-7.2,10.8-10.9C106.9,111,107.5,109.6,108.2,108.5z"/>
	<path fill="#BEBEC1" d="M233,108.5c11.8,0,23.7,0,35.9,0c0,14.1,0,28.3,0,42.5c-2.3,1.9-4.5,3.8-6.8,5.7c-1.8,1.4-3.7,2.7-5.5,4
		c-0.1-8.1,0-16.2-0.2-24.3c-0.1-7.2-4.7-11.6-11.8-11.7c-4.1-0.1-8.2-0.1-12.4-0.1c0-2.9,0-5.8,0-8.7
		C232.4,113.3,232.7,110.9,233,108.5z"/>
	<path fill="#CDCCCE" d="M75.7,269.4c1.2-0.7,2.7-1.1,3.7-2c17.8-17.7,35.5-35.4,53.1-53.1c0.9-0.9,1.4-2.1,2.1-3.2
		c5.1,0,10.1,0,15.2,0c-0.8,1.2-1.4,2.5-2.4,3.5c-22.5,22.6-45.1,45.2-67.7,67.7c-1,1-2.6,1.6-3.9,2.3
		C75.7,279.5,75.7,274.5,75.7,269.4z"/>
	<path fill="#D7D6D9" d="M233,108.5c-0.3,2.4-0.5,4.9-0.8,7.3c-2.9,2.9-5.9,5.8-8.8,8.6c-18.7,0-37.3,0-56,0
		c0.9-1.5,1.6-3.2,2.7-4.5c3.3-3.9,6.7-7.6,10.1-11.5c13.2-0.1,26.4-0.2,39.7-0.3C224.3,108.2,228.6,108.4,233,108.5z"/>
	<path fill="#D7D6D9" d="M86.6,45.5c-7.5,0-15.1,0-22.8,0c0-8.4,0-16.8,0-25.6c15.3,0,30.7,0,46.1,0c-0.8,1.2-1.5,2.5-2.4,3.5
		C101.2,29.6,95,35.8,88.9,42C87.9,43,87.3,44.3,86.6,45.5z"/>
	<path fill="#C6C5C8" d="M127.7,305.6c-1,1.2-1.8,2.6-3,3.7c-14.9,15-29.8,29.9-44.8,44.8c-1.1,1.1-2.8,1.8-4.2,2.6
		c0-5.1,0-10.2,0-15.3c1.4-0.8,3.1-1.4,4.2-2.6c20.1-20,40.2-40.1,60.3-60.1c1.2-1.2,2.7-1.9,4.1-2.8c-5,7.3-10.2,14.5-14.9,22
		C128.1,300,128.2,303,127.7,305.6z"/>
	<path fill="#9B9C9F" d="M114.6,390.1c18.9,0,37.9,0,56.8,0c-0.9,1.4-1.8,2.8-2.8,4.1c-3.3,3.7-6.6,7.4-10,11.1
		c-18.9,0-37.9,0-56.8,0c2.7-3,5.4-6,8-9.1C111.5,394.2,113,392.1,114.6,390.1z"/>
	<path fill="#9B9C9F" d="M186.6,390.1c18.9,0,37.9,0,56.8,0c-0.9,1.4-1.8,2.8-2.8,4.1c-3.3,3.7-6.6,7.4-10,11.1
		c-18.9,0-37.9,0-56.8,0c2.7-3,5.4-6,8-9.1C183.5,394.2,185,392.1,186.6,390.1z"/>
	<path fill="#D7D6D9" d="M75.7,197.4c0-18.9,0-37.8,0-56.8c1.5-1,3.1-1.8,4.5-2.9c3.3-2.7,6.6-5.6,9.8-8.3c-0.6,2.9-1.7,5.9-1.8,8.8
		C88,155,88.1,171.8,88,188.6c-1.7,1.1-3.4,2.1-5.1,3.3C80.5,193.6,78.1,195.5,75.7,197.4z"/>
	<path fill="#ADADAF" d="M269,19.9c3.8,0,7.7,0,11.8,0c0,8.5,0,17.1,0,25.7c-12.3,0-24.5,0-36.6,0c0.3-0.3,0.6-0.7,0.9-1
		c7.7-7.6,15.5-15.3,23.2-22.9C268.7,21.3,268.8,20.5,269,19.9z"/>
	<path fill="#CDCCCE" d="M233,344.6c-0.3,0.8-0.5,1.6-0.8,2.4c-1,0.6-2.1,1-2.9,1.8c-8.6,8.6-17.3,17.2-25.8,25.8
		c-0.8,0.8-1.1,2-1.7,3c-5.1,0-10.2,0-15.2,0c0.8-1.2,1.3-2.6,2.3-3.5c13.2-13.3,26.5-26.6,39.8-39.7c1.1-1.1,2.8-1.7,4.3-2.5
		C232.9,336,233,340.3,233,344.6z"/>
	<path fill="#9B9C9F" d="M86.6,405.3c-10.1,0-20.1,0-30.9,0c0.2-3.2,0-6.4,0.7-9.4c1-3.9,4-5.9,8-5.9c11.7,0,23.3,0.1,35,0.1
		c-0.9,1.4-1.8,2.8-2.8,4.1C93.3,397.9,89.9,401.6,86.6,405.3z"/>
	<path fill="#B5B5B8" d="M233,256.6c1.3-0.9,2.7-1.6,3.8-2.7c9.5-9.4,18.8-18.8,28.3-28.2c1.1-1.1,2.5-1.8,3.8-2.7
		c0,5.1,0,10.1,0,15.2c-1.3,0.9-2.7,1.6-3.8,2.7c-9.6,9.6-19.2,19.2-28.8,28.8c-1,1-2.2,1.9-3.3,2.9c0-4.3-0.1-8.6-0.1-12.8
		C232.9,258.7,233,257.7,233,256.6z"/>
	<path fill="#B5B5B8" d="M233,344.6c0-4.3-0.1-8.6-0.1-12.8c0-1.1,0.1-2.1,0.1-3.2c1.3-0.9,2.7-1.6,3.8-2.7
		c9.5-9.4,18.8-18.8,28.3-28.2c1.1-1.1,2.5-1.8,3.8-2.7c0,5.1,0,10.1,0,15.2c-1.3,0.9-2.7,1.6-3.8,2.7c-9.6,9.6-19.2,19.2-28.8,28.8
		C235.2,342.7,234.1,343.6,233,344.6z"/>
	<path fill="#CBCACD" d="M151,356.6c-1,0.5-2.3,0.8-3,1.6c-5.7,5.5-11.2,11.1-16.8,16.8c-0.7,0.7-0.9,1.8-1.3,2.7
		c-5.1,0-10.2,0-15.3,0c0.7-1.1,1.1-2.4,2-3.3c12.8-12.9,25.7-25.8,38.7-38.7c1-1,2.4-1.4,3.6-2.1
		C156.2,341.2,153.6,348.9,151,356.6z"/>
	<path fill="#8F8F90" d="M250.6,390.2c9.8-0.1,19.7-0.3,29.5-0.1c5.2,0.1,8.3,3.2,8.8,8.5c0.2,2.1,0,4.2,0,6.8c-12.1,0-24,0-35.9,0
		C252.2,400.2,251.4,395.2,250.6,390.2z"/>
	<path fill="#D7D6D9" d="M201.8,377.6c0.5-1,0.9-2.2,1.7-3c8.6-8.7,17.2-17.3,25.8-25.8c0.8-0.8,2-1.2,2.9-1.8
		c0.2,10.2,0.5,20.4,0.7,30.6C222.6,377.5,212.2,377.6,201.8,377.6z"/>
	<path fill="#F8D35E" d="M336.9,116.3c8.5,0,16.4,0,24.7,0c0,3.6,0.3,7.2-0.1,10.8c-0.8,6.4-6.5,10.9-12.9,10.6
		c-6.5-0.3-11.4-5.2-11.7-11.8C336.8,122.8,336.9,119.8,336.9,116.3z"/>
	<path fill="#CDCCCE" d="M90,129.4c-3.3,2.8-6.5,5.6-9.8,8.3c-1.4,1.1-3,1.9-4.5,2.9c0-5.1,0-10.2,0-15.2c1.2-0.7,2.7-1.1,3.6-2
		c4-3.8,7.9-7.7,11.7-11.7c0.9-0.9,1.3-2.2,1.9-3.2c5.1,0,10.2,0,15.2,0c-0.7,1.2-1.3,2.5-2.3,3.5c-3.6,3.7-7.3,7.2-10.8,10.9
		c-0.9,1-1.5,2.4-2.2,3.6C92,127.4,91,128.4,90,129.4z"/>
	<path fill="#CDCCCE" d="M86.6,45.5c0.8-1.2,1.3-2.5,2.3-3.5c6.1-6.2,12.4-12.4,18.5-18.6c1-1,1.6-2.3,2.4-3.5c5.1,0,10.1,0,15.2,0
		c-0.8,1.2-1.5,2.5-2.5,3.5c-6.1,6.2-12.4,12.4-18.5,18.6c-1,1-1.5,2.4-2.2,3.6C96.7,45.6,91.7,45.5,86.6,45.5z"/>
	<path fill="#CDCCCE" d="M197,19.9c-0.8,1.2-1.5,2.5-2.5,3.5c-6.1,6.2-12.4,12.4-18.5,18.6c-1,1-1.5,2.4-2.2,3.6
		c-5.1,0-10.2,0-15.3,0c0.8-1.2,1.3-2.5,2.3-3.5c6.1-6.2,12.4-12.4,18.5-18.6c1-1,1.6-2.3,2.4-3.5C186.9,19.9,191.9,19.9,197,19.9z"
		/>
	<path fill="#9B9C9F" d="M86.6,60.6c0,11.7,0,23.4,0,35.3c-3.7,0-7.1,0-10.8,0c0-9.2,0-18.2,0-27.2c1.4-1,2.8-1.9,4.1-2.9
		C82.1,64,84.3,62.3,86.6,60.6z"/>
	<path fill="#D7D6D9" d="M292.9,286.2c0,10.9,0,21.7,0,32.8c-3.8,0-7.5,0-11.1,0c-0.2-0.3-0.4-0.5-0.6-0.8c0-7.5,0-14.9,0-22.4
		c1.7-1.4,3.4-2.8,5.2-4.2C288.5,289.8,290.7,288,292.9,286.2z"/>
	<path fill="#F3B959" d="M328.3,103c0-1.8,0-3.7,0-5.5c0.2-0.3,0.3-0.7,0.5-1c13.7,0,27.4,0,41.3,0c0,2.6,0,5,0,7.6
		c-13.9,0-27.6,0-41.3,0C328.6,103.7,328.5,103.3,328.3,103z"/>
	<path fill="#9B9C9F" d="M258.1,87.2c0-9.6,0-19.1,0-29c3.5,0,6.9,0,10.8,0c0,6.8,0,13.8,0,20.8c-1.7,1.4-3.4,2.8-5.2,4.1
		C261.8,84.5,259.9,85.8,258.1,87.2z"/>
	<path fill="#B5B5B8" d="M269,19.9c-0.2,0.6-0.3,1.4-0.8,1.8c-7.7,7.7-15.5,15.3-23.2,22.9c0-4.3-0.1-8.6-0.1-12.9
		c0-1.1,0.1-2.1,0.1-3.2c2.9-2.9,5.9-5.8,8.8-8.7C258.9,19.9,263.9,19.9,269,19.9z"/>
	<path fill="#CDCCCE" d="M180.2,108.5c-3.4,3.8-6.8,7.6-10.1,11.5c-1.1,1.3-1.8,3-2.7,4.5c-5.3,0-10.7,0-16,0
		c3.7-4.1,7.5-8.1,11.1-12.2c1-1.1,1.7-2.5,2.5-3.8C170.1,108.4,175.1,108.5,180.2,108.5z"/>
	<path fill="#949598" d="M250.6,390.2c0.8,5,1.6,10.1,2.4,15.1c-7.5,0-14.9,0-22.4,0c3.3-3.7,6.7-7.3,10-11.1
		c1.1-1.2,1.9-2.7,2.8-4.1C245.8,390.1,248.2,390.1,250.6,390.2z"/>
	<path fill="#949598" d="M186.6,390.1c-1.6,2-3.1,4.1-4.8,6c-2.6,3.1-5.3,6.1-8,9.1c-5.1,0-10.1,0-15.2,0c3.3-3.7,6.7-7.3,10-11.1
		c1.1-1.2,1.9-2.7,2.8-4.1C176.5,390.1,181.5,390.1,186.6,390.1z"/>
	<path fill="#949598" d="M86.6,405.3c3.3-3.7,6.7-7.3,10-11.1c1.1-1.2,1.9-2.7,2.8-4.1c5.1,0,10.1,0,15.2,0c-1.6,2-3.1,4.1-4.8,6
		c-2.6,3.1-5.3,6.1-8,9.1C96.7,405.3,91.7,405.3,86.6,405.3z"/>
	<path fill="#ADADAF" d="M256.6,160.7c1.8-1.3,3.7-2.6,5.5-4c2.3-1.8,4.5-3.8,6.8-5.7c0,5.1,0,10.2,0,15.2c-2.4,2-4.8,4-7.2,6.1
		c-1.7,1.4-3.4,2.9-5.1,4.3C256.6,171.3,256.6,166,256.6,160.7z"/>
	<path fill="#CDCCCE" d="M75.7,197.4c2.4-1.8,4.8-3.7,7.3-5.5c1.6-1.2,3.4-2.2,5.1-3.3c0.2,4.7,0.4,9.5,0.6,14.2
		c-2.8,2.3-5.5,4.7-8.4,6.9c-1.4,1.1-3,1.9-4.5,2.9C75.7,207.5,75.7,202.5,75.7,197.4z"/>
	<path fill="#D7D6D9" d="M93,108.4c-0.6,1.1-1.1,2.4-1.9,3.2c-3.8,4-7.7,7.9-11.7,11.7c-1,0.9-2.4,1.3-3.6,2c0-5.5,0-11.1,0-17
		C81.5,108.4,87.2,108.4,93,108.4z"/>
	<path fill="#CBCACD" d="M292.9,286.2c-2.2,1.8-4.4,3.6-6.6,5.5c-1.7,1.4-3.4,2.8-5.2,4.2c0-5.8,0-11.6,0-17.6c4,0,7.7,0,11.8,0
		C292.9,281,292.9,283.6,292.9,286.2z"/>
	<path fill="#8F8F90" d="M258.1,87.2c1.9-1.4,3.8-2.7,5.6-4.1c1.8-1.3,3.5-2.7,5.2-4.1c0,5.6,0,11.1,0,16.9c-3.6,0-7,0-10.8,0
		C258.1,92.9,258.1,90.1,258.1,87.2z"/>
	<path fill="#CDCCCE" d="M244.9,31.8c0,4.3,0.1,8.6,0.1,12.9c-0.3,0.3-0.6,0.7-0.9,1c-4.5,0-9.1-0.1-13.6-0.1
		C234.3,39.9,238.6,34.8,244.9,31.8z"/>
	<path fill="#838385" d="M86.6,60.6c-2.2,1.7-4.4,3.4-6.7,5.1c-1.4,1-2.8,2-4.1,2.9c0-3.4,0-6.8,0-10.9c3.1,0,6.3-0.1,9.3,0.1
		C85.6,57.9,86.1,59.6,86.6,60.6z"/>
	<path fill="#BEBEC1" d="M253.8,19.9c-2.9,2.9-5.9,5.8-8.8,8.7c0-2.9,0-5.8,0-8.7C247.9,19.9,250.9,19.9,253.8,19.9z"/>
	<path fill="#EFEFEF" d="M281.8,58.1c-0.2,0.3-0.4,0.6-0.6,0.9C281.4,58.7,281.6,58.4,281.8,58.1z"/>
	<path fill="#CBCACD" d="M281.2,318.2c0.2,0.3,0.4,0.5,0.6,0.8C281.6,318.7,281.4,318.5,281.2,318.2z"/>
	<path fill="#997538" d="M328.8,96.4c-0.2,0.3-0.3,0.7-0.5,1C328.5,97.1,328.6,96.7,328.8,96.4z"/>
	<path fill="#997538" d="M328.3,103c0.2,0.4,0.3,0.7,0.5,1.1C328.6,103.7,328.5,103.3,328.3,103z"/>
	<path fill="#020303" d="M151,356.6c2.6-7.7,5.2-15.4,7.9-23.1c2.9-8.1,5.8-16.2,8.9-24.8c-11.3,0-22.1-0.1-32.8,0
		c-3,0-5.5-0.7-7.3-3.2c0.6-2.6,0.5-5.6,1.8-7.7c4.7-7.5,9.9-14.7,14.9-22c12.6-18,25.2-36,37.8-53.9c0.8-1.1,1.5-2.2,2.3-3.3
		c1.8-2.6,4-4.4,7.3-3.5c3.1,0.8,4.4,3.2,4.5,6.3c-2.5,7.5-4.9,14.9-7.4,22.4c-4,11.1-7.9,22.2-12.1,33.8c12.7,0,24.8,0,36.9,0
		c3.9,3,4.6,5.5,2.7,9.1c-0.6,1.2-1.3,2.3-2,3.4c-12,17.1-24,34.2-36,51.3c-6.1,8.7-12.2,17.5-18.3,26.2c-1.7,2.5-4,4.4-7,3.2
		c-1.8-0.7-3.3-2.7-4.4-4.4c-0.5-0.9,0-2.6,0.3-3.8C149.6,360.6,150.3,358.6,151,356.6z M144.7,296.7c9.9,0,19.1,0,28.3,0
		c8.1,0,10.4,3.2,7.8,10.8c-1.8,5.3-3.6,10.6-5.4,15.8c0.2,0.1,0.5,0.2,0.7,0.3c7.8-11.3,15.7-22.5,23.8-34.3c-10.1,0-19.2,0-28.4,0
		c-8,0-10.1-3.2-7.6-10.9c1.5-4.5,2.9-9.1,4.3-13.7c-0.3-0.2-0.7-0.4-1-0.6C159.9,274.9,152.6,285.4,144.7,296.7z"/>
	<path fill="#030303" d="M88.6,202.8c-0.2-4.7-0.4-9.5-0.6-14.2c0.1-16.8,0-33.6,0.2-50.4c0-3,1.2-5.9,1.8-8.8c1-1,2-1.9,2.9-2.9
		c7.3-3.4,15-1.8,22.6-1.4c1.7,0.1,3.1,3.3,4.7,5.1c-1.5,5.4-2.8,6.3-8.4,6.4c-3.8,0-7.6,0-11.6,0c0,12.5,0,24.7,0,36.8
		c0,5.1,0,10.1,0,15.2c0,3.4,0,6.8,0,10.1c16.5,0,32.6,0,48.6,0c5.3,0,10.5,0,15.8,0c11.9,0,23.9,0,35.8,0.2c2.2,0,4.5,1.1,6.7,1.7
		c0.5,1.6,1.1,3.1,1.6,4.7c-1.3,4.2-4.3,5.5-8.5,5.5c-16.9,0-33.7,0.1-50.6,0.1c-5.1,0-10.1,0-15.2,0c-11.2-0.1-22.4-0.1-33.5-0.1
		C95.1,210.9,90.8,208.5,88.6,202.8z"/>
	<path fill="#CBCACD" d="M212.2,205.4c0.8,0,1.6-0.1,2.4-0.1c3.4,0,6.7,0,10.1,0c0.4,1.1,0.8,2.1,1.2,3.2c-1.1,1-2.2,1.8-3.3,2.9
		c-9.9,9.9-19.9,19.9-29.8,29.8c-1.1,1.1-2.5,1.7-3.8,2.6c2.5-7.5,4.9-14.9,7.4-22.4c4.1-3.7,8.2-7.3,12.1-11.1
		C209.9,208.9,211,207.1,212.2,205.4z"/>
	<path fill="#CBCACD" d="M214.4,290.1c0.7-1.1,1.4-2.3,2-3.4c2-3.6,1.2-6.1-2.7-9.1c5.5-5.7,11-11.4,16.6-17
		c0.6-0.6,1.7-0.6,2.6-0.8c0,4.3,0.1,8.6,0.1,12.8c-0.3,0.8-0.5,1.6-0.8,2.4c-3.6,3.2-7.2,6.5-10.9,9.6
		C219.1,286.5,216.7,288.3,214.4,290.1z"/>
	<path fill="#030303" d="M225.8,208.6c-0.4-1.1-0.8-2.1-1.2-3.2c0.9-5.3,2.3-6.4,7.6-6.5c1.3,0,2.6-0.1,3.9-0.2c2.6,0,5.2,0,8,0
		c0-2.7,0-5.2,0-7.7c0-5.1,0-10.1,0-15.2c0-12.9,0-25.8,0-39.1c-11.9,0-24,0-36,0c-18.7,0-37.3,0-56,0c-4.5-0.4-9-0.7-13.6-1.1
		c-0.9-1.8-1.8-3.6-2.7-5.5c0.8-4.1,3.4-5.7,7.4-5.7c2.7,0.1,5.3-0.1,8-0.1c5.3,0,10.7,0,16,0c18.7,0,37.3,0,56,0c2.9,0,5.9,0,8.8,0
		c4.1,0,8.2,0.1,12.4,0.1c7.1,0.1,11.7,4.6,11.8,11.7c0.2,8.1,0.1,16.2,0.2,24.3c0,5.3,0,10.6,0,15.9c-0.1,7.2-0.1,14.4-0.2,21.6
		c-0.1,8.2-4.5,12.5-12.6,12.7c-3.6,0.1-7.2,0.1-10.8,0.2C230.6,210.2,228.2,209.4,225.8,208.6z"/>
	<path fill="#D7D6D9" d="M225.8,208.6c2.4,0.8,4.8,1.7,7.2,2.5c0,15.2,0,30.4,0,45.5c0,1.1-0.1,2.1-0.1,3.2c-0.9,0.3-2,0.3-2.6,0.8
		c-5.6,5.6-11.1,11.3-16.6,17c-12.1,0-24.2,0-36.9,0c4.2-11.7,8.1-22.8,12.1-33.8c1.3-0.8,2.7-1.5,3.8-2.6
		c10-9.9,19.9-19.8,29.8-29.8C223.6,210.4,224.7,209.5,225.8,208.6z"/>
	<path fill="#CBCACD" d="M232.2,124.5c-2.9,0-5.9,0-8.8,0c2.9-2.9,5.9-5.8,8.8-8.6C232.2,118.7,232.2,121.6,232.2,124.5z"/>
	<path fill="#33D4D9" d="M144.7,296.7c7.9-11.3,15.2-21.9,22.5-32.4c0.3,0.2,0.7,0.4,1,0.6c-1.4,4.6-2.8,9.1-4.3,13.7
		c-2.6,7.7-0.4,10.9,7.6,10.9c9.2,0,18.4,0,28.4,0c-8.2,11.8-16,23-23.8,34.3c-0.2-0.1-0.5-0.2-0.7-0.3c1.8-5.3,3.6-10.6,5.4-15.8
		c2.6-7.5,0.2-10.8-7.8-10.8C163.8,296.7,154.6,296.7,144.7,296.7z"/>
	<path fill="#F8F7F1" d="M157.1,167.6c0-5.1,0.1-10.1,0-15.2c-0.1-3.9-2.3-6.3-5.7-6.4c-3.5-0.1-6.2,2.2-6.2,6.3
		c-0.1,10.2-0.1,20.5,0,30.7c0.1,3.8,2.7,6.2,5.9,6.3c3.4,0,5.9-2.6,6-6.6C157.2,177.8,157.1,172.7,157.1,167.6z"/>
	<path fill="#030303" d="M177.9,184.6c-0.3-4.5-0.6-9-0.9-13.6c0.1-4.9,0.1-9.8,0.2-14.7c0.1-7,3.3-10.2,10.3-10.3
		c5-0.1,10.1-0.1,15.1-0.2c5.5,0.1,10.9,0.1,16.4,0.2c6.2,0.2,9.4,3.1,9.5,9.3c0.2,8.3,0.2,16.5,0,24.8c-0.1,6.3-3.5,9.3-9.9,9.4
		c-3.5,0.1-6.9,0.1-10.4,0.1c-6.7,0-13.5-0.2-20.2-0.1C183.7,189.6,180.3,188.2,177.9,184.6z M189.5,158.2c0,6.6,0,12.8,0,19
		c9.1,0,18,0,26.9,0c0-6.4,0-12.6,0-19C207.3,158.2,198.6,158.2,189.5,158.2z"/>
	<path fill="#030303" d="M126.6,147.8c0.6,4.3,1.1,8.5,1.7,12.8c-0.1,7.1,0.1,14.1-0.3,21.1c-0.1,2.3-1.2,5.1-2.8,6.5
		c-3.4,2.9-8.5,0.2-9-4.5c-0.3-2.9-0.2-5.8-0.2-8.8c0-5.1,0-10.1,0-15.2c0.1-2.1,0.2-4.2,0.2-6.3c-0.1-2.8,0.4-5.8,3.2-6.5
		C121.5,146.4,124.1,147.5,126.6,147.8z"/>
	<path fill="#030303" d="M157.1,167.6c0,5.1,0.1,10.1,0,15.2c-0.1,4-2.6,6.6-6,6.6c-3.3,0-5.9-2.5-5.9-6.3
		c-0.1-10.2-0.2-20.5,0-30.7c0.1-4,2.7-6.4,6.2-6.3c3.4,0.1,5.6,2.5,5.7,6.4C157.2,157.5,157.1,162.6,157.1,167.6z"/>
	<path fill="#95CAEA" d="M189.5,158.2c9.1,0,17.9,0,26.9,0c0,6.4,0,12.6,0,19c-8.9,0-17.7,0-26.9,0
		C189.5,171,189.5,164.8,189.5,158.2z"/>
</g>
</svg>
