<svg version="1.1" 
	xmlns="http://www.w3.org/2000/svg" 
	xmlns:xlink="http://www.w3.org/1999/xlink" id="forest" x="0px" y="0px" viewBox="0 0 512 512" enable-background="new 0 0 512 512" xml:space="preserve">
	<path fill="#1A9172" d="M273.7,212.2c0-9.8-14.3-27.6-8.8-35V62.1c0-24.3-19.9-44.1-44.1-44.1c-24.3,0-44.1,19.9-44.1,44.1v79.8
	c5.5,7.4,0,33.7,0,43.5V274c8.1-10.8,38.5-18,53-18c14.5,0,27.3,7.2,35.3,18L273.7,212.2z"/>
	<path fill="#BE7C6D" d="M220.7,247.5c-4.9,0-8.8-4-8.8-8.8V97.4c0-4.9,4-8.8,8.8-8.8c4.9,0,8.8,4,8.8,8.8v141.2
	C229.5,243.6,225.6,247.5,220.7,247.5z"/>
	<path fill="#BE7C6D" d="M220.7,247.5c-2.3,0-4.5-0.9-6.2-2.6c-3.5-3.4-3.5-9,0-12.5l17.7-17.7c3.4-3.5,9-3.5,12.5,0s3.5,9,0,12.5
	l-17.7,17.7C225.2,246.7,222.9,247.5,220.7,247.5z"/>
	<path fill="#BE7C6D" d="M220.7,168.1c-2.3,0-4.5-0.9-6.2-2.6c-3.5-3.5-3.5-9,0-12.5l17.7-17.7c3.4-3.4,9-3.4,12.5,0
	c3.5,3.5,3.5,9,0,12.5l-17.7,17.7C225.2,167.2,222.9,168.1,220.7,168.1z"/>
	<path fill="#BE7C6D" d="M220.7,203.4c-2.3,0-4.5-0.9-6.2-2.6l-17.7-17.7c-3.5-3.4-3.5-9,0-12.5c3.5-3.5,9-3.5,12.5,0l17.7,17.7
	c3.5,3.4,3.5,9,0,12.5C225.2,202.5,222.9,203.4,220.7,203.4z"/>
	<path fill="#3D6F44" d="M88.3,53.3c-24.3,0-44.1,19.9-44.1,44.1v114.8c0,0.3,0.1,0.6,0.1,0.9c2.8-0.6,5.7,87.4,8.7,87.4
	c24,0,43.6-41.5,44.1-17.7c0,0,0.1-27.4,0.1-27.4l35.3,53.9V97.4C132.4,73.2,112.6,53.3,88.3,53.3z"/>
	<path fill="#61B872" d="M423.7,53.3c-24.3,0-44.1,19.9-44.1,44.1v27.4l8.8,193.3c0,0,0.1,0,0.1,0c0.5-23.9,46.6-61.8,70.5-61.8
	c3,0,5.9-43.8,8.7-43.2c0-0.3,0.1-0.6,0.1-0.9V97.4C467.9,73.2,448,53.3,423.7,53.3z"/>
	<path fill="#3D6F44" d="M326.6,371.1V168.3c-7.4-5.6-16.5-9.1-26.5-9.1c-24.3,0-44.1,19.9-44.1,44.1v53.3c5.5,7.4-8.8,16.3-8.8,26.2
	v88.3c0,6.8,16,13.1,13.2,18.8c7.1,14.9,22.2,25.3,39.7,25.3c14.5,0,27.3-7.1,35.3-18C330,389.9,326.6,380.9,326.6,371.1z"/>
	<path fill="#61B872" d="M53,415.2c-24.3,0-44.1-19.9-44.1-44.1V256.3c0-24.3,19.9-44.1,44.1-44.1c24.3,0,44.1,19.9,44.1,44.1v114.8
	C97.1,395.4,77.2,415.2,53,415.2z"/>
	<path fill="#BE7C6D" d="M53,353.4c-2.3,0-4.5-0.9-6.2-2.6c-3.4-3.5-3.4-9,0-12.5l17.7-17.7c3.5-3.4,9-3.4,12.5,0
	c3.4,3.5,3.4,9,0,12.5l-17.7,17.7C57.5,352.6,55.2,353.4,53,353.4z"/>
	<path fill="#BE7C6D" d="M53,388.8c-2.3,0-4.5-0.9-6.2-2.6l-17.7-17.7c-3.5-3.4-3.5-9,0-12.5c3.4-3.5,9-3.5,12.5,0l17.7,17.7
	c3.5,3.4,3.5,9,0,12.5C57.5,387.9,55.2,388.8,53,388.8z"/>
	<path fill="#BE7C6D" d="M141.2,353.4c-2.3,0-4.5-0.9-6.2-2.6c-3.5-3.5-3.5-9,0-12.5l17.7-17.7c3.4-3.4,9-3.4,12.5,0
	c3.5,3.5,3.5,9,0,12.5l-17.7,17.7C145.8,352.6,143.5,353.4,141.2,353.4z"/>
	<path fill="#BE7C6D" d="M141.2,388.8c-2.3,0-4.5-0.9-6.2-2.6l-17.7-17.7c-3.4-3.4-3.4-9,0-12.5c3.5-3.5,9-3.5,12.5,0l17.7,17.7
	c3.4,3.4,3.4,9,0,12.5C145.8,387.9,143.5,388.8,141.2,388.8z"/>
	<path fill="#BE7C6D" d="M141.2,274c-2.3,0-4.5-0.9-6.2-2.6c-3.5-3.5-3.5-9,0-12.5l17.7-17.7c3.4-3.5,9-3.5,12.5,0
	c3.5,3.4,3.5,9,0,12.5l-17.7,17.7C145.8,273.1,143.5,274,141.2,274z"/>
	<path fill="#BE7C6D" d="M141.2,309.3c-2.3,0-4.5-0.9-6.2-2.6l-17.7-17.7c-3.4-3.5-3.4-9,0-12.5c3.5-3.4,9-3.4,12.5,0l17.7,17.7
	c3.4,3.4,3.4,9,0,12.5C145.8,308.4,143.5,309.3,141.2,309.3z"/>
	<path fill="#61B872" d="M220.7,415.2c-24.3,0-44.1-19.9-44.1-44.1v-88.3c0-24.3,19.9-44.1,44.1-44.1c24.3,0,44.1,19.9,44.1,44.1
	v88.3C264.8,395.4,245,415.2,220.7,415.2z"/>
	<path fill="#BE7C6D" d="M220.7,379.9c-2.3,0-4.5-0.9-6.2-2.6c-3.5-3.4-3.5-9,0-12.5l17.7-17.7c3.4-3.5,9-3.5,12.5,0s3.5,9,0,12.5
	l-17.7,17.7C225.2,379.1,222.9,379.9,220.7,379.9z"/>
	<path fill="#BE7C6D" d="M53,454.3c-4.9,0-8.8-4-8.8-8.8V291.7c0-4.9,4-8.8,8.8-8.8c4.9,0,8.8,4,8.8,8.8v153.9
	C61.8,450.4,57.8,454.3,53,454.3z"/>
	<path fill="#1A9172" d="M459,415.2c24.3,0,44.1-19.9,44.1-44.1V256.3c0-24.3-19.9-44.1-44.1-44.1c-24.3,0-44.1,19.9-44.1,44.1v114.8
	C414.9,395.4,434.8,415.2,459,415.2z"/>
	<path fill="#BE7C6D" d="M459,353.4c-2.3,0-4.5-0.9-6.2-2.6l-17.7-17.7c-3.4-3.5-3.4-9,0-12.5c3.5-3.4,9-3.4,12.5,0l17.7,17.7
	c3.4,3.5,3.4,9,0,12.5C463.6,352.6,461.3,353.4,459,353.4z"/>
	<path fill="#BE7C6D" d="M459,388.8c-2.3,0-4.5-0.9-6.2-2.6c-3.5-3.5-3.5-9,0-12.5l17.7-17.7c3.4-3.5,9-3.5,12.5,0
	c3.5,3.5,3.5,9,0,12.5l-17.7,17.7C463.6,387.9,461.3,388.8,459,388.8z"/>
	<path fill="#23A24D" d="M370.8,415.2c24.3,0,44.1-19.9,44.1-44.1v-203c0-24.3-19.9-44.1-44.1-44.1c-24.3,0-44.1,19.9-44.1,44.1v203
	C326.6,395.4,346.5,415.2,370.8,415.2z"/>
	<g>
		<path fill="#BE7C6D" d="M370.8,494.7c-4.9,0-8.8-4-8.8-8.8V203.4c0-4.9,4-8.8,8.8-8.8c4.9,0,8.8,4,8.8,8.8v282.5
		C379.6,490.7,375.6,494.7,370.8,494.7z"/>
		<path fill="#BE7C6D" d="M370.8,353.4c-2.3,0-4.5-0.9-6.2-2.6l-17.7-17.7c-3.5-3.5-3.5-9,0-12.5c3.4-3.4,9-3.4,12.5,0l17.7,17.7
		c3.5,3.5,3.5,9,0,12.5C375.3,352.6,373,353.4,370.8,353.4z"/>
		<path fill="#BE7C6D" d="M370.8,388.8c-2.3,0-4.5-0.9-6.2-2.6c-3.4-3.5-3.4-9,0-12.5l17.7-17.7c3.5-3.5,9-3.5,12.5,0
		c3.4,3.5,3.4,9,0,12.5L377,386.2C375.3,387.9,373,388.8,370.8,388.8z"/>
		<path fill="#BE7C6D" d="M370.8,274c-2.3,0-4.5-0.9-6.2-2.6l-17.7-17.7c-3.5-3.4-3.5-9,0-12.5c3.4-3.5,9-3.5,12.5,0l17.7,17.7
		c3.5,3.5,3.5,9,0,12.5C375.3,273.1,373,274,370.8,274z"/>
		<path fill="#BE7C6D" d="M370.8,309.3c-2.3,0-4.5-0.9-6.2-2.6c-3.4-3.4-3.4-9,0-12.5l17.7-17.7c3.5-3.4,9-3.4,12.5,0
		c3.4,3.5,3.4,9,0,12.5L377,306.7C375.3,308.4,373,309.3,370.8,309.3z"/>
		<path fill="#BE7C6D" d="M300.1,450.6c-4.9,0-8.8-4-8.8-8.8V203.4c0-4.9,4-8.8,8.8-8.8c4.9,0,8.8,4,8.8,8.8v238.3
		C309,446.6,305,450.6,300.1,450.6z"/>
		<path fill="#BE7C6D" d="M300.1,353.4c-2.3,0-4.5-0.9-6.2-2.6l-17.7-17.7c-3.5-3.5-3.5-9,0-12.5c3.4-3.4,9-3.4,12.5,0l17.7,17.7
		c3.5,3.5,3.5,9,0,12.5C304.7,352.6,302.4,353.4,300.1,353.4z"/>
		<path fill="#BE7C6D" d="M300.1,274c-2.3,0-4.5-0.9-6.2-2.6l-17.7-17.7c-3.5-3.4-3.5-9,0-12.5c3.4-3.5,9-3.5,12.5,0l17.7,17.7
		c3.5,3.5,3.5,9,0,12.5C304.7,273.1,302.4,274,300.1,274z"/>
		<path fill="#BE7C6D" d="M459,454.3c-4.9,0-8.8-4-8.8-8.8V291.7c0-4.9,4-8.8,8.8-8.8c4.9,0,8.8,4,8.8,8.8v153.9
		C467.9,450.4,463.9,454.3,459,454.3z"/>
	</g>
	<path fill="#23A24D" d="M176.6,371.1v-88.3c0-9.8,3.4-18.8,8.8-26.2v-88.6c0-24.3-19.9-44.1-44.1-44.1c-24.3,0-44.1,19.9-44.1,44.1
	v203c0,24.3,19.9,44.1,44.1,44.1c17.5,0,32.6-10.4,39.7-25.3C178.2,384.2,176.6,377.9,176.6,371.1z"/>
	<path fill="#BE7C6D" d="M141.2,475.3c-4.9,0-8.8-4-8.8-8.8V203.4c0-4.9,4-8.8,8.8-8.8c4.9,0,8.8,4,8.8,8.8v263.1
	C150.1,471.3,146.1,475.3,141.2,475.3z"/>
	<path fill="#BE7C6D" d="M220.7,472.3c-4.9,0-8.8-4-8.8-8.8V318.1c0-4.9,4-8.8,8.8-8.8c4.9,0,8.8,4,8.8,8.8v145.3
	C229.5,468.3,225.6,472.3,220.7,472.3z"/>
	<path fill="#61B872" d="M396.4,466.4c2.6,0,5,0.8,7.3,1.9c8-19.3,21.9-26.5,37.6-26.5s29.6,7.2,37.6,26.5c2.3-1.1,4.7-1.9,7.3-1.9
	c14.2,0,25.7,6,25.7,28.3H370.8C370.8,472.4,382.3,466.4,396.4,466.4z"/>
	<path fill="#61B872" d="M140.4,466.4c2.6,0,5,0.8,7.3,1.9c8-19.3,21.9-26.5,37.6-26.5s29.6,7.2,37.6,26.5c2.3-1.1,4.7-1.9,7.3-1.9
	c14.2,0,25.7,6,25.7,28.3H114.8C114.8,472.4,126.3,466.4,140.4,466.4z"/>
	<path fill="#23A24D" d="M128,468.6c-3.7-1.6-7.9-2.3-12.4-2.3c-2.6,0-5,0.8-7.3,1.9c-8-19.3-21.9-26.5-37.6-26.5S41,448.9,33,468.2
	c-2.3-1.1-4.7-1.9-7.3-1.9c-14.2,0-25.7,6-25.7,28.3h114.8C114.8,479.5,120.1,472,128,468.6z"/>
	<path fill="#3D6F44" d="M345.1,466.4c-2.6,0-5,0.8-7.3,1.9c-8-19.3-21.9-26.5-37.7-26.5c-15.8,0-29.6,7.2-37.6,26.5
	c-2.3-1.1-4.7-1.9-7.3-1.9c-4.5,0-8.7,0.7-12.4,2.3c7.9,3.3,13.2,10.9,13.2,26h114.8C370.8,472.4,359.3,466.4,345.1,466.4z"/>
</svg>
