<?xml version="1.0" encoding="utf-8"?>
<svg version="1.1" id="Capa_1" xmlns="http://www.w3.org/2000/svg" xmlns:xlink="http://www.w3.org/1999/xlink" x="0px" y="0px"
	 viewBox="0 0 470.3 342.5" enable-background="new 0 0 470.3 342.5" xml:space="preserve">
<g>
	<path fill="#FFED00" d="M279.9,59.7c1.1,3.4-0.8,7-4.2,8.1c-3.4,1.1-7-0.8-8.1-4.2c-0.1-0.2-0.1-0.4-0.2-0.6l-7.1-26.7
		c-1.1-3.4,0.8-7,4.2-8.1c3.4-1.1,7,0.8,8.1,4.2c0.1,0.2,0.1,0.4,0.2,0.6L279.9,59.7z M232.3,83c2.5,2.5,2.5,6.6,0,9.1
		s-6.6,2.5-9.1,0l-19.4-19.7c-2.7-2.2-3.1-6.2-0.9-8.9c2-2.5,5.6-3.2,8.4-1.5c0.7,0.4,1.2,0.9,1.7,1.5L232.3,83z M376.6,92.9
		c-2.5,2.5-6.6,2.5-9.1,0s-2.5-6.6,0-9.1l19.7-19.4c2.5-2.5,6.6-2.5,9.1,0s2.5,6.6,0,9.1L376.6,92.9z M332.6,63.5
		c-1,3.4-4.5,5.4-8,4.4s-5.4-4.5-4.4-8l0,0l7.3-26.7c1-3.4,4.5-5.4,8-4.4s5.4,4.5,4.4,8L332.6,63.5z"/>
	<path fill="#FFED00" d="M319.6,260.9c-1.1-3.4,0.8-7,4.2-8.1c3.4-1.1,7,0.8,8.1,4.2c0.1,0.2,0.1,0.4,0.2,0.6l7.1,26.7
		c1.1,3.4-0.8,7-4.2,8.1c-3.4,1.1-7-0.8-8.1-4.2c-0.1-0.2-0.1-0.4-0.2-0.6L319.6,260.9z M367.2,237.7c-2.5-2.5-2.5-6.6,0-9.1
		s6.6-2.5,9.1,0l19.4,19.7c2.7,2.2,3.1,6.2,0.9,8.9c-2,2.5-5.6,3.2-8.4,1.5c-0.7-0.4-1.2-0.9-1.7-1.5L367.2,237.7z M222.9,227.8
		c2.5-2.5,6.6-2.5,9.1,0s2.5,6.6,0,9.1l-19.7,19.4c-2.5,2.5-6.6,2.5-9.1,0s-2.5-6.6,0-9.1L222.9,227.8z M266.9,257.2
		c1-3.4,4.5-5.4,8-4.4c3.4,1,5.4,4.5,4.4,8l0,0l-7.3,26.7c-1,3.4-4.5,5.4-8,4.4c-3.4-1-5.4-4.5-4.4-8L266.9,257.2z"/>
	<path fill="#FFED00" d="M400.3,140.5c-3.4,1.1-7-0.8-8.1-4.2s0.8-7,4.2-8.1c0.2-0.1,0.4-0.1,0.6-0.2l26.7-7.1
		c3.4-1.1,7,0.8,8.1,4.2c1.1,3.4-0.8,7-4.2,8.1c-0.2,0.1-0.4,0.1-0.6,0.2L400.3,140.5z M396.6,193.2c-3.4-1-5.4-4.5-4.4-8
		c1-3.4,4.5-5.4,8-4.4l0,0l26.7,7.3c3.4,1,5.4,4.5,4.4,8c-1,3.4-4.5,5.4-8,4.4L396.6,193.2z"/>
	<path fill="#FFED00" d="M199.2,180.2c3.4-1.1,7,0.8,8.1,4.2s-0.8,7-4.2,8.1c-0.2,0.1-0.4,0.1-0.6,0.2l-26.7,7.1
		c-3.4,1.1-7-0.8-8.1-4.2s0.8-7,4.2-8.1c0.2-0.1,0.4-0.1,0.6-0.2L199.2,180.2z M202.9,127.5c3.4,1,5.4,4.5,4.4,8
		c-1,3.4-4.5,5.4-8,4.4l0,0l-26.7-7.3c-3.4-1-5.4-4.5-4.4-8c1-3.4,4.5-5.4,8-4.4L202.9,127.5z"/>
	<circle fill="#FFED00" cx="299.8" cy="157.9" r="74.7"/>
</g>
<path fill="#50D1EF" d="M318.9,189c42.4-2.4,78.7,29.9,81.1,72.3s-29.9,78.7-72.3,81.1c-3,0.2-5.9,0.2-8.9,0h-223
	c-33.1,0-59.9-26.9-59.9-60s26.8-59.9,59.9-59.9h4.3c-7.1-51,28.6-98.1,79.6-105.2s98.1,28.6,105.2,79.6
	C295.6,191.7,307.2,189,318.9,189L318.9,189z"/>
</svg>
