<svg version="1.1" id="wolf" 
	xmlns="http://www.w3.org/2000/svg" 
	xmlns:xlink="http://www.w3.org/1999/xlink" x="0px" y="0px" viewBox="0 0 512 512" enable-background="new 0 0 512 512" xml:space="preserve">
	<path fill="#787780" d="M76,260.4c-1.7,0-3.5-0.3-5.1-0.9c-5.9-2.2-9.9-7.8-9.9-14.1V45.1c0-17.5,9.8-33,25.5-40.6
	c15.7-7.6,34-5.5,47.6,5.4L202,65.2c3.1,2.5,5.2,6.2,5.6,10.3c0.4,4-0.9,8-3.5,11.1L87.5,255.1C84.6,258.5,80.3,260.4,76,260.4z"/>
	<path fill="#E5E5E5" d="M91,45.1c0-5.9,3.2-11,8.5-13.5c2.1-1,4.3-1.5,6.6-1.5c3.4,0,6.6,1.2,9.3,3.4l56.9,46.5L91,197.3V45.1z"/>
	<path fill="#57555C" d="M436,260.4c-4.3,0-8.6-1.9-11.5-5.3L307.9,86.6c-2.6-3.1-3.9-7.1-3.5-11.1c0.4-4,2.4-7.7,5.6-10.3l67.9-55.3
	c13.7-10.9,31.9-13,47.6-5.4c15.7,7.6,25.5,23.1,25.5,40.6v200.4c0,6.3-3.9,11.9-9.9,14.1C439.5,260.1,437.7,260.4,436,260.4z"/>
	<path fill="#D9D9D9" d="M339.8,79.8l56.9-46.5c2.7-2.2,6-3.3,9.3-3.3c2.2,0,4.4,0.5,6.6,1.5c5.3,2.5,8.5,7.6,8.5,13.5v152.4
	L339.8,79.8z"/>
	<path fill="#8B8892" d="M481,286v151c0,4.8-2.4,9.3-6.3,12.3c-3.9,2.7-9,3.6-13.5,1.8l-62.1-20.7l9.9,32.1
	c1.8,5.4,0.3,11.4-3.9,15.3c-4.2,4.2-10.5,5.1-15.6,3.3l-67.8-25.5H256l-66.3-0.3l-78.9,25.8c-5.1,1.8-10.8,0.6-15-3
	c-3.9-3.6-5.7-9.3-4.5-14.4l7.5-31.8l-47.1,18.9c-4.8,2.1-9.9,1.5-14.1-1.2c-4.2-3-6.6-7.5-6.6-12.6V286C31,161.8,131.8,61,256,61
	S481,161.8,481,286z"/>
	<path fill="#787780" d="M481,286v151c0,4.8-2.4,9.3-6.3,12.3c-3.9,2.7-9,3.6-13.5,1.8l-62.1-20.7l9.9,32.1
	c1.8,5.4,0.3,11.4-3.9,15.3c-4.2,4.2-10.5,5.1-15.6,3.3l-67.8-25.5H256V61C380.2,61,481,161.8,481,286z"/>
	<path fill="#E5E5E5" d="M391,226.3c-1.5-36.9-27.9-68.7-62.4-74.4c-22.2-3.3-44.4,2.7-61.2,17.1c-4.2,3.6-8.1,7.5-11.4,12
	c-3.3-4.5-7.2-8.4-11.4-12c-16.8-14.4-39-20.4-61.2-17.1c-34.5,5.7-60.9,37.5-62.4,74.4c-18.6,14.1-30,36.3-30,59.7v61
	c0,8.4,6.6,15,15,15h47.7l15.9,79.2C177.7,482.3,214,512,256,512s78.3-29.7,86.4-70.8l15.9-79.2H406c8.4,0,15-6.6,15-15v-61
	C421,262.6,409.6,240.4,391,226.3z"/>
	<path fill="#D9D9D9" d="M421,286v61c0,8.4-6.6,15-15,15h-47.7l-15.9,79.2C334.3,482.3,298,512,256,512V181c3.3-4.5,7.2-8.4,11.4-12
	c16.8-14.4,39-20.4,61.2-17.1c34.5,5.7,60.9,37.5,62.4,74.4C409.6,240.4,421,262.6,421,286z"/>
	<g>
		<path fill="#787780" d="M271,452v45c0,8.4-6.6,15-15,15s-15-6.6-15-15v-45c0-8.4,6.6-15,15-15C264.4,437,271,443.6,271,452z"/>
		<path fill="#787780" d="M256,369.5c-24.9,0-45,20.1-45,45c0,3.3,1.2,6.6,3.3,9.3l30,37.5c2.7,3.6,7.2,5.7,11.7,5.7s9-2.1,11.7-5.7
		l30-37.5c2.1-2.7,3.3-6,3.3-9.3C301,389.6,280.9,369.5,256,369.5z"/>
	</g>
	<circle fill="#57555C" cx="196" cy="286" r="15"/>
	<circle fill="#3C3A41" cx="316" cy="286" r="15"/>
	<g>
		<path fill="#57555C" d="M301,414.5c0,3.3-1.2,6.6-3.3,9.3l-30,37.5c-2.7,3.6-7.2,5.7-11.7,5.7v-97.5
		C280.9,369.5,301,389.6,301,414.5z"/>
		<path fill="#57555C" d="M271,452v45c0,8.4-6.6,15-15,15v-75C264.4,437,271,443.6,271,452z"/>
	</g>
</svg>
